<?xml version="1.0" encoding="utf-8"?>
<!-- Generator: Adobe Illustrator 16.0.0, SVG Export Plug-In . SVG Version: 6.00 Build 0)  -->
<!DOCTYPE svg PUBLIC "-//W3C//DTD SVG 1.1//EN" "http://www.w3.org/Graphics/SVG/1.1/DTD/svg11.dtd">
<svg version="1.1" id="Layer_1" xmlns="http://www.w3.org/2000/svg" xmlns:xlink="http://www.w3.org/1999/xlink" x="0px" y="0px"
	 width="300px" height="300px" viewBox="0 0 300 300" enable-background="new 0 0 300 300" xml:space="preserve">
<g id="CHARACTER">
	<g>
		<g>
			<path fill="#ED1C24" d="M255.652,274.004c-2.079,1.521-3.892,3.377-5.25,5.566c-0.126,0.199-0.249,0.398-0.372,0.592
				c-0.539,0.85-1.021,1.736-1.432,2.656c-1.756,3.924-7.713,14.871-16.85,7.387l-4.009-0.801c-1.933,1.979-4.617,3.328-4.617,3.328
				s-6.695-0.564-15.009-9.137c0,0-2.857-0.648-6.688-3.637c0,0-0.107,3.285,2.222,8.586s4.014,11.139,4.014,11.139H78.415
				c0,0,4.008-14.836,3.456-26.072c-0.449-9.193-1.181-49.67-1.43-64.072c-0.03-1.656-0.337-3.283-0.902-4.814
				c-0.563-1.533-1.383-2.971-2.433-4.25c-1.698-2.07-3.928-3.635-6.45-4.527c-4.073-1.441-11.896-3.793-26.619-7.166
				c-27.065-6.201-40.738-17.221-39.048-31.045c0,0,0.597-6.86,9.448-13.624s12.829-14.222,12.829-14.222l-0.282-2.499
				c0,0,4.057-0.601,7.551-5.152c3.493-4.55,5.539-6.808,9.456-5.469c3.917,1.341,15.648,6.651,17.905,26.578
				c0,0,6.604,1.611,15.177-2.315c0,0-0.511-3.426,4.648-2.23c5.736,1.33,9.31-3.907,12.512-0.447c0,0,5.518-0.163,10.786-2.952
				c5.27-2.789,7.439,6.198,7.439,6.198s0.647-4.18,8.728-3.203c0,0,1.46-5.893,7.138-3.217c5.704,2.687,16.013,6.534,42.997-3.455
				c0,0,8.572-3.818,9.038,7.099c0,0,16.1,11.895,35.568,16.977c5.778,1.508,10.605,5.463,13.223,10.832
				c4.012,8.232,9.136,21.605,10.575,38.318c0,0,5.496,2.559,0.948,8.717l7.39,24.539c0,0,12.554,9.762,8.532,27.363
				C256.596,265.572,259.998,270.828,255.652,274.004z"/>
		</g>
		<g>
			<g>
				<g>
					<path fill="#FCC8A1" d="M170.142,133.374l-3.89-32.05l-41.614,5.05l3.947,32.53c0.163,1.339-1.07,2.395-2.382,2.078
						c-0.011-0.001-0.023-0.005-0.032-0.007l0.382,3.147c1.571,12.942,13.336,22.161,26.279,20.591l0,0
						c12.941-1.572,22.16-13.337,20.59-26.279l-0.438-3.598c-0.101,0.034-0.198,0.07-0.299,0.108
						C171.539,135.375,170.291,134.594,170.142,133.374z"/>
				</g>
				<g>
					<path fill="#FCC8A1" d="M148.979,132.948L148.979,132.948c-15.308,1.857-29.221-9.045-31.078-24.352l-4.11-33.855
						c-1.857-15.307,9.044-29.221,24.351-31.078l0,0c15.308-1.857,29.222,9.043,31.078,24.351l4.109,33.856
						C175.187,117.177,164.283,131.091,148.979,132.948z"/>
				</g>
				<g>
					<path fill="#F7996E" d="M148.979,132.948c-2.364,0.493-4.826,0.589-7.251,0.326c-0.608-0.057-1.209-0.168-1.813-0.262
						c-0.603-0.104-1.194-0.263-1.793-0.392c-0.301-0.057-0.589-0.167-0.88-0.253l-0.878-0.273c-0.582-0.189-1.146-0.43-1.72-0.644
						c-0.564-0.235-1.111-0.517-1.666-0.775c-0.545-0.274-1.074-0.585-1.608-0.882c-0.523-0.319-1.026-0.669-1.537-1.001
						c-0.5-0.351-0.976-0.735-1.459-1.106c-1.891-1.542-3.555-3.357-4.862-5.391c1.638,1.774,3.413,3.38,5.342,4.768
						c0.497,0.328,0.978,0.673,1.473,0.997c0.51,0.304,1.008,0.621,1.523,0.91c0.527,0.269,1.037,0.57,1.569,0.826
						c0.54,0.241,1.069,0.506,1.615,0.728c0.552,0.212,1.092,0.453,1.651,0.642c0.563,0.179,1.121,0.377,1.688,0.538
						c0.572,0.147,1.139,0.324,1.716,0.448l0.871,0.176c0.289,0.057,0.578,0.138,0.875,0.172
						C144.173,132.898,146.564,133.027,148.979,132.948z"/>
				</g>
				<g>
					<path fill="#F7996E" d="M171.887,114.691c-0.234,1.262-0.651,2.484-1.183,3.657c-0.134,0.292-0.271,0.584-0.417,0.87
						l-0.461,0.849c-0.161,0.278-0.338,0.549-0.505,0.824l-0.538,0.804c-0.745,1.051-1.595,2.029-2.524,2.916
						c-0.934,0.887-1.951,1.683-3.064,2.32c0.851-0.961,1.689-1.896,2.491-2.856c0.802-0.961,1.557-1.949,2.279-2.961l0.537-0.764
						c0.172-0.259,0.337-0.523,0.515-0.778l0.506-0.787c0.158-0.269,0.324-0.532,0.491-0.798
						C170.657,116.912,171.263,115.811,171.887,114.691z"/>
				</g>
			</g>
			<g>
				<g>
					<path fill="#FCC8A1" d="M116.8,107.615l1.442-0.174c2.847-0.345,4.875-2.934,4.53-5.782l-1.118-9.203
						c-0.345-2.848-2.934-4.875-5.782-4.53l-1.442,0.174c-2.848,0.345-4.875,2.934-4.53,5.781l1.118,9.204
						C111.363,105.933,113.951,107.962,116.8,107.615z"/>
				</g>
				<g>
					<path fill="#FCC8A1" d="M172.72,100.83l1.442-0.174c2.848-0.345,4.874-2.934,4.53-5.781l-1.119-9.204
						c-0.344-2.848-2.933-4.875-5.78-4.531l-1.442,0.175c-2.848,0.344-4.875,2.933-4.53,5.781l1.118,9.203
						C167.285,99.147,169.873,101.174,172.72,100.83z"/>
				</g>
				<g>
					<g>
						<path fill="#F7996E" d="M114.685,93.612c-0.53,0.26-0.853,0.717-1.029,1.213c-0.189,0.495-0.251,1.035-0.268,1.569
							c-0.01,1.071,0.189,2.157,0.604,3.116c0.21,0.475,0.483,0.915,0.828,1.258c0.165,0.168,0.39,0.337,0.515,0.381
							c0.029,0.011,0.044,0.011,0.042,0.017c-0.002,0.004-0.017,0.017-0.011,0.019c0.011,0.01,0.07-0.064,0.104-0.163
							c0.074-0.205,0.102-0.478,0.125-0.746c0.021-0.273,0.018-0.552,0.015-0.834c-0.006-0.566-0.046-1.137-0.074-1.719
							c0.233,0.535,0.403,1.09,0.542,1.661c0.068,0.286,0.115,0.576,0.15,0.877c0.032,0.303,0.045,0.608-0.025,0.959
							c-0.043,0.174-0.095,0.379-0.304,0.58c-0.102,0.096-0.251,0.172-0.396,0.197c-0.144,0.026-0.273,0.009-0.383-0.013
							c-0.428-0.118-0.669-0.313-0.927-0.523c-0.506-0.428-0.858-0.978-1.118-1.543c-0.502-1.14-0.661-2.388-0.483-3.596
							c0.093-0.603,0.276-1.204,0.614-1.729c0.174-0.257,0.382-0.496,0.637-0.674C114.098,93.741,114.393,93.629,114.685,93.612z"/>
					</g>
					<g>
						<path fill="#F7996E" d="M115.986,95.922c-0.189-0.345-0.301-0.667-0.401-0.982c-0.097-0.313-0.171-0.614-0.247-0.892
							c-0.075-0.278-0.149-0.53-0.244-0.707c-0.047-0.091-0.104-0.173-0.22-0.247c-0.116-0.08-0.278-0.118-0.474-0.167
							c0.122-0.159,0.294-0.272,0.515-0.326c0.22-0.051,0.489,0.008,0.694,0.138c0.417,0.272,0.599,0.682,0.699,1.044
							c0.101,0.374,0.11,0.741,0.063,1.099C116.318,95.243,116.214,95.596,115.986,95.922z"/>
					</g>
				</g>
				<g>
					<g>
						<path fill="#F7996E" d="M173.084,86.525c0.286-0.053,0.6-0.016,0.888,0.097c0.29,0.111,0.55,0.294,0.781,0.502
							c0.455,0.428,0.775,0.968,1.011,1.531c0.461,1.131,0.605,2.38,0.391,3.607c-0.114,0.61-0.326,1.228-0.716,1.764
							c-0.2,0.268-0.387,0.514-0.774,0.73c-0.104,0.049-0.223,0.097-0.37,0.104c-0.146,0.012-0.309-0.027-0.432-0.097
							c-0.248-0.146-0.349-0.332-0.433-0.491c-0.15-0.324-0.212-0.625-0.252-0.926c-0.038-0.299-0.063-0.593-0.064-0.887
							c-0.003-0.588,0.031-1.167,0.129-1.742c0.112,0.571,0.21,1.135,0.34,1.687c0.065,0.275,0.129,0.548,0.215,0.808
							c0.085,0.256,0.177,0.513,0.298,0.694c0.058,0.086,0.131,0.146,0.141,0.134c0.004-0.003-0.014-0.013-0.015-0.017
							c-0.004-0.004,0.012-0.01,0.035-0.026c0.11-0.072,0.291-0.29,0.41-0.493c0.253-0.415,0.411-0.908,0.501-1.419
							c0.176-1.029,0.106-2.132-0.157-3.17c-0.144-0.513-0.333-1.023-0.633-1.459C174.083,87.016,173.662,86.65,173.084,86.525z"/>
					</g>
					<g>
						<path fill="#F7996E" d="M172.373,89.08c-0.299-0.262-0.486-0.58-0.623-0.913c-0.133-0.337-0.211-0.698-0.204-1.083
							c0.012-0.377,0.09-0.816,0.432-1.182c0.168-0.177,0.414-0.298,0.64-0.301c0.228-0.002,0.422,0.068,0.578,0.193
							c-0.179,0.097-0.328,0.173-0.421,0.277c-0.095,0.099-0.129,0.193-0.153,0.292c-0.05,0.193-0.061,0.456-0.067,0.745
							c-0.009,0.288-0.009,0.599-0.028,0.925S172.474,88.699,172.373,89.08z"/>
					</g>
				</g>
			</g>
			<g>
				<path fill="#1B1B2F" d="M160.684,84.408c0.166,1.378-0.816,2.631-2.192,2.797c-1.378,0.167-2.63-0.815-2.798-2.192
					c-0.166-1.378,0.815-2.63,2.193-2.797C159.265,82.05,160.517,83.031,160.684,84.408z"/>
			</g>
			<g>
				<path fill="#1B1B2F" d="M162.911,80.308c-0.929-0.168-1.85-0.216-2.755-0.138c-0.899,0.087-1.788,0.272-2.607,0.638
					c-0.215,0.066-0.403,0.192-0.606,0.286l-0.299,0.152c-0.1,0.053-0.188,0.125-0.284,0.182l-0.571,0.365
					c-0.172,0.146-0.35,0.286-0.53,0.427l-0.269,0.212l-0.245,0.241l-0.499,0.477c-0.323,0.332-0.613,0.696-0.952,1.033
					c0.212-0.419,0.438-0.841,0.695-1.241l0.437-0.571l0.223-0.282l0.257-0.254c0.171-0.171,0.344-0.339,0.522-0.502
					c0.192-0.148,0.389-0.291,0.585-0.434c0.099-0.072,0.195-0.146,0.302-0.207l0.321-0.172c0.219-0.108,0.424-0.249,0.656-0.326
					c0.898-0.388,1.883-0.561,2.85-0.542C161.104,79.666,162.067,79.874,162.911,80.308z"/>
			</g>
			<g>
				<path fill="#1B1B2F" d="M134.501,87.586c0.167,1.378-0.814,2.63-2.192,2.797c-1.377,0.167-2.63-0.815-2.797-2.192
					c-0.167-1.377,0.815-2.63,2.192-2.797C133.082,85.227,134.334,86.207,134.501,87.586z"/>
			</g>
			<g>
				<path fill="#1B1B2F" d="M136.641,86.203c-0.719-0.61-1.496-1.112-2.317-1.497c-0.823-0.375-1.687-0.659-2.577-0.75
					c-0.22-0.051-0.445-0.036-0.669-0.057l-0.335-0.019c-0.112-0.004-0.224,0.013-0.337,0.015l-0.677,0.032
					c-0.222,0.04-0.447,0.072-0.672,0.103l-0.339,0.049l-0.332,0.085l-0.673,0.163c-0.445,0.126-0.877,0.295-1.339,0.419
					c0.394-0.256,0.797-0.51,1.222-0.726l0.661-0.275l0.336-0.132l0.349-0.091c0.232-0.063,0.467-0.121,0.705-0.174
					c0.238-0.032,0.481-0.055,0.724-0.083c0.122-0.011,0.243-0.029,0.364-0.029l0.366,0.012c0.242,0.017,0.49-0.003,0.729,0.045
					c0.973,0.114,1.913,0.457,2.74,0.955C135.397,84.742,136.129,85.404,136.641,86.203z"/>
			</g>
			<g>
				<path fill="#1B1B2F" d="M148.762,91.642c0.415,1.014,0.766,2.046,1.094,3.083c0.332,1.036,0.627,2.083,0.914,3.13
					c0.131,0.509,0.297,1.085,0.303,1.665c0.014,0.576-0.061,1.162-0.27,1.705c-0.2,0.542-0.537,1.058-1.027,1.393
					c-0.461,0.296-0.918,0.588-1.396,0.859c0.388-0.389,0.794-0.754,1.197-1.12c0.368-0.342,0.596-0.812,0.73-1.296
					c0.125-0.492,0.179-1.005,0.131-1.51c-0.025-0.512-0.167-0.989-0.317-1.525c-0.273-1.052-0.541-2.105-0.77-3.17
					C149.118,93.796,148.908,92.727,148.762,91.642z"/>
			</g>
			<g>
				<path fill="#1B1B2F" d="M160.137,72.658c-1.017,0.554-1.801,0.957-2.521,1.376c-0.713,0.411-1.342,0.769-1.946,1.178
					c-0.081,0.042-0.158,0.089-0.229,0.15l-0.227,0.155c-0.078,0.05-0.155,0.099-0.238,0.146c-0.078,0.049-0.146,0.116-0.227,0.167
					c-0.151,0.114-0.315,0.215-0.485,0.322c-0.152,0.123-0.316,0.245-0.489,0.36c-0.086,0.061-0.182,0.113-0.273,0.174
					c-0.084,0.066-0.166,0.137-0.258,0.201c-0.177,0.132-0.37,0.263-0.574,0.396c-0.395,0.276-0.791,0.58-1.334,0.86
					c-0.068-0.28-0.106-0.561-0.12-0.837c-0.013-0.277-0.021-0.56,0.014-0.828c0.043-0.265,0.097-0.533,0.167-0.797
					c0.031-0.135,0.07-0.264,0.113-0.396c0.052-0.125,0.104-0.254,0.166-0.377c0.115-0.25,0.246-0.495,0.384-0.737
					c0.156-0.229,0.332-0.449,0.513-0.665c0.092-0.108,0.182-0.218,0.281-0.317l0.32-0.282c0.221-0.178,0.432-0.377,0.682-0.516
					c0.958-0.633,2.109-0.955,3.225-0.932c0.138-0.008,0.279,0.016,0.417,0.03c0.14,0.015,0.275,0.028,0.414,0.053
					c0.271,0.053,0.541,0.125,0.803,0.218C159.23,71.954,159.734,72.221,160.137,72.658z"/>
			</g>
			<g>
				<path fill="#1B1B2F" d="M136.724,79.917c-1.078-0.424-1.891-0.765-2.675-1.048c-0.773-0.28-1.452-0.534-2.152-0.733
					c-0.083-0.035-0.171-0.065-0.262-0.08l-0.265-0.074c-0.086-0.028-0.176-0.055-0.263-0.087c-0.089-0.031-0.182-0.04-0.275-0.066
					c-0.184-0.043-0.367-0.104-0.558-0.165c-0.193-0.038-0.391-0.085-0.593-0.144c-0.101-0.026-0.203-0.064-0.308-0.096
					c-0.104-0.021-0.21-0.038-0.318-0.068c-0.216-0.049-0.439-0.114-0.671-0.186c-0.464-0.125-0.951-0.231-1.516-0.47
					c0.173-0.233,0.362-0.444,0.565-0.632c0.205-0.187,0.413-0.376,0.642-0.521c0.231-0.137,0.472-0.27,0.718-0.385
					c0.124-0.063,0.248-0.114,0.375-0.169c0.129-0.042,0.262-0.083,0.395-0.115c0.265-0.07,0.536-0.129,0.811-0.18
					c0.276-0.027,0.557-0.034,0.84-0.034c0.14,0,0.282-0.001,0.422,0.011l0.421,0.063c0.278,0.057,0.564,0.085,0.833,0.191
					c1.099,0.326,2.085,1.002,2.787,1.87c0.094,0.101,0.167,0.226,0.247,0.34c0.077,0.115,0.154,0.229,0.223,0.351
					c0.135,0.244,0.252,0.494,0.348,0.754C136.681,78.768,136.797,79.324,136.724,79.917z"/>
			</g>
			<g>
				<path fill="#1B1B2F" d="M117.185,73.901l1.042-0.705l-0.292,6.884l-2.92,3.79c0,0,2.154,13.107,1.968,13.13
					c-0.186,0.022-6.156-12.042-7.411-22.368c0,0-2.956,3.409,1.948,7.697c0,0-6.129-0.159-3.92-5.687
					c0.796-1.993,1.491-4.023,1.967-6.115c0.017-0.076,0.035-0.151,0.054-0.229l-1.34,2.363c0,0-1.428-2.027,0.595-6.069
					c0,0-4.964,4.777-4.33,10.621c0,0-2.938-6.551,3.193-12.077c0,0-1.249-3.941,2.162-10.677c0,0-2.816,2.475-3.384,5.741
					c0,0-2.875-7.269,8.747-11.42c0,0,1.358-6.183,9.61-4.212c0,0-3.792-8.864,7.119-11.598c0,0-8.004,3.35-5.586,10.544
					c0,0,2.077-12.586,14.295-9.487c0,0,3.551-1.135,5.918,2.806c0,0,6.646,2.454,10.063-1.222c0,0-0.952,4.169-5.508,2.694
					c0,0,2.747,1.429,5.919,0.692c3.173-0.737,4.937,2.484,4.937,2.484s7.831-1.724,8.73,7.78c0,0,11.494,4.861,9.364,13.746
					c0,0-0.455-7.453-9.738-10.473c0,0,11.179,9.426,7.39,15.219c0,0,0.493-3.447-3.458-6.498l-1.222,6.706
					c0,0,4.191,5.041,2.746,7.593c0,0-1.354-5.384-2.972-7.135c0,0,2.314,11.16-1.776,17.92l-0.827-8.767l-3.619-4.356l-1.951-9.529
					c0,0-7.319-3.505-7.084-3.534c0.234-0.029,1.874-0.879,1.874-0.879s-3.873-5.794-12.405-1.667l0.107-1.071l-3.251,1.94
					l0.449-2.17l-2.636,2.436l-3.004-0.612l0.771,1.046l-5.895-0.83l0.809,0.796c0,0-10.562,1.77-16.559,9.819l1.728-0.779
					L117.185,73.901z"/>
			</g>
			<g>
				<path fill="#204169" d="M124.235,41.214c0.07,0.829,0.279,1.63,0.556,2.401c0.119,0.393,0.299,0.762,0.448,1.141
					c0.175,0.369,0.357,0.736,0.538,1.099c0.772,1.44,1.748,2.763,2.822,3.991c1.048,1.258,2.272,2.357,3.488,3.464l1.912,1.571
					c0.662,0.495,1.325,0.991,1.975,1.515c-0.73-0.396-1.446-0.821-2.166-1.245c-0.691-0.465-1.377-0.942-2.052-1.433
					c-0.326-0.261-0.65-0.527-0.97-0.796s-0.652-0.526-0.945-0.826l-0.9-0.879c-0.306-0.288-0.565-0.622-0.849-0.93
					c-1.096-1.271-2.083-2.659-2.782-4.197c-0.161-0.39-0.333-0.775-0.478-1.171c-0.122-0.404-0.273-0.798-0.358-1.211
					C124.282,42.892,124.157,42.046,124.235,41.214z"/>
			</g>
			<g>
				<path fill="#204169" d="M129.613,39.555c-0.171,0.703-0.231,1.418-0.228,2.128c-0.014,0.71,0.076,1.416,0.18,2.113
					c0.238,1.393,0.694,2.738,1.282,4.021c0.151,0.318,0.292,0.645,0.453,0.958l0.522,0.925c0.088,0.153,0.167,0.314,0.262,0.464
					l0.294,0.446c0.196,0.295,0.39,0.595,0.579,0.898l1.27,1.729c0.456,0.553,0.916,1.107,1.354,1.687
					c-0.545-0.474-1.071-0.97-1.602-1.468c-0.487-0.536-0.979-1.072-1.442-1.635c-0.878-1.16-1.713-2.376-2.302-3.725
					c-0.599-1.338-1.047-2.761-1.188-4.23c-0.063-0.733-0.081-1.472,0.01-2.199C129.146,40.938,129.3,40.212,129.613,39.555z"/>
			</g>
			<g>
				<path fill="#204169" d="M143.568,54.714c0.658-1.027,1.252-2.077,1.801-3.145c0.538-1.073,1.019-2.168,1.408-3.293l0.274-0.849
					c0.092-0.284,0.145-0.576,0.225-0.862c0.035-0.144,0.077-0.287,0.111-0.432l0.078-0.438l0.076-0.44
					c0.029-0.146,0.062-0.292,0.072-0.439c0.164-1.183,0.133-2.375,0.035-3.595c0.371,1.16,0.557,2.403,0.484,3.643
					c-0.073,1.234-0.319,2.463-0.722,3.632c-0.414,1.164-0.941,2.285-1.587,3.33C145.18,52.868,144.443,53.859,143.568,54.714z"/>
			</g>
			<g>
				<path fill="#204169" d="M140.615,54.824c-0.327-0.557-0.56-1.16-0.744-1.772c-0.183-0.613-0.316-1.243-0.395-1.879
					c-0.085-0.637-0.092-1.283-0.053-1.925c0.043-0.643,0.167-1.283,0.387-1.888c0.057,0.646,0.079,1.264,0.136,1.883
					c0.057,0.618,0.118,1.233,0.195,1.847l0.237,1.85C140.466,53.562,140.552,54.184,140.615,54.824z"/>
			</g>
			<g>
				<path fill="#204169" d="M145.952,52.872c0.975-1.489,2.109-2.867,3.326-4.168c1.217-1.302,2.537-2.513,3.957-3.604
					c1.427-1.077,2.954-2.049,4.619-2.738c1.646-0.707,3.459-1.116,5.237-0.993c-1.771,0.159-3.455,0.697-5.021,1.47
					c-0.782,0.387-1.549,0.807-2.278,1.289c-0.737,0.47-1.458,0.968-2.149,1.506c-1.397,1.058-2.714,2.225-3.991,3.438
					C148.376,50.289,147.145,51.555,145.952,52.872z"/>
			</g>
			<g>
				<path fill="#204169" d="M154.728,49.154c1.297-0.887,2.837-1.399,4.383-1.702c1.554-0.303,3.147-0.379,4.726-0.279
					c1.578,0.114,3.147,0.404,4.646,0.912c1.496,0.502,2.929,1.213,4.181,2.156c-1.398-0.705-2.846-1.256-4.331-1.654
					c-1.487-0.392-3.009-0.646-4.54-0.745c-1.531-0.11-3.073-0.066-4.599,0.125C157.669,48.171,156.157,48.516,154.728,49.154z"/>
			</g>
			<g>
				<path fill="#204169" d="M176.655,63.76c-0.728-0.762-1.488-1.469-2.273-2.143c-0.789-0.669-1.596-1.312-2.451-1.89
					c-0.843-0.589-1.718-1.137-2.626-1.627c-0.9-0.514-1.846-0.934-2.797-1.396c1.035,0.195,2.062,0.491,3.028,0.926
					c0.497,0.193,0.957,0.457,1.43,0.701c0.236,0.123,0.455,0.275,0.684,0.412c0.227,0.138,0.452,0.28,0.666,0.435
					c0.874,0.607,1.69,1.295,2.426,2.061C175.475,62,176.149,62.83,176.655,63.76z"/>
			</g>
			<g>
				<path fill="#204169" d="M111.71,50.376c0.689-0.604,1.504-1.06,2.357-1.41c0.214-0.083,0.43-0.171,0.648-0.243l0.666-0.2
					c0.451-0.106,0.903-0.207,1.364-0.262c0.229-0.032,0.46-0.057,0.693-0.063c0.231-0.008,0.465-0.03,0.695-0.026
					c0.464,0.03,0.929,0.024,1.386,0.119c0.918,0.118,1.802,0.426,2.622,0.817c-0.91-0.125-1.785-0.279-2.674-0.295
					c-0.883-0.043-1.766-0.006-2.638,0.111c-0.873,0.101-1.737,0.288-2.592,0.533C113.385,49.706,112.545,50.009,111.71,50.376z"/>
			</g>
			<g>
				<path fill="#204169" d="M133.208,57.863c-1.407-0.462-2.82-0.854-4.249-1.163c-0.715-0.148-1.431-0.288-2.151-0.375
					c-0.718-0.095-1.44-0.163-2.16-0.172c-0.72-0.015-1.438,0.025-2.145,0.129c-0.708,0.091-1.396,0.29-2.054,0.559
					c-0.652,0.278-1.276,0.639-1.817,1.112c-0.544,0.474-1.002,1.042-1.416,1.658c0.283-0.684,0.681-1.329,1.186-1.895
					c0.516-0.555,1.145-1.01,1.829-1.353c1.372-0.701,2.929-0.895,4.43-0.883c1.508,0.043,2.994,0.295,4.427,0.71
					C130.517,56.605,131.91,57.145,133.208,57.863z"/>
			</g>
			<g>
				<path fill="#204169" d="M134.434,59.146c-1.196,0.024-2.388,0.093-3.572,0.219c-1.184,0.112-2.365,0.271-3.534,0.469
					c-1.168,0.206-2.332,0.441-3.475,0.745c-1.145,0.299-2.281,0.632-3.382,1.059c-1.105,0.413-2.185,0.893-3.225,1.444
					c-1.039,0.555-2.028,1.2-2.969,1.905c-0.931,0.722-1.791,1.532-2.581,2.414c-0.794,0.881-1.45,1.874-2.072,2.897
					c0.485-1.093,1.095-2.137,1.818-3.105c0.743-0.95,1.578-1.836,2.506-2.615c0.931-0.776,1.944-1.45,2.995-2.054
					c1.061-0.586,2.168-1.083,3.295-1.514c2.268-0.839,4.631-1.385,7.016-1.692C129.634,59.013,132.047,58.931,134.434,59.146z"/>
			</g>
			<g>
				<path fill="#204169" d="M105.837,67.248c0.411-0.757,0.968-1.43,1.586-2.033c0.614-0.61,1.313-1.133,2.052-1.586
					c0.368-0.231,0.762-0.417,1.15-0.612c0.405-0.157,0.797-0.347,1.22-0.455c0.823-0.274,1.692-0.39,2.547-0.411
					c-0.812,0.295-1.607,0.547-2.365,0.902c-0.762,0.333-1.501,0.714-2.206,1.15c-0.714,0.42-1.395,0.898-2.058,1.406
					C107.104,66.121,106.464,66.665,105.837,67.248z"/>
			</g>
			<g>
				<path fill="#204169" d="M162.919,62.832c0.862,0.2,1.692,0.495,2.507,0.824c0.814,0.326,1.61,0.701,2.392,1.101
					c0.774,0.412,1.543,0.84,2.276,1.321c0.738,0.472,1.452,0.989,2.124,1.563c-0.818-0.337-1.6-0.724-2.382-1.109
					c-0.781-0.385-1.555-0.784-2.328-1.18c-0.767-0.408-1.54-0.804-2.304-1.225C164.438,63.712,163.675,63.289,162.919,62.832z"/>
			</g>
			<g>
				<path fill="#204169" d="M108.893,75.95c0.034-0.61,0.278-1.192,0.568-1.72c0.296-0.532,0.665-1.018,1.074-1.461
					c0.406-0.449,0.868-0.835,1.348-1.196c0.243-0.176,0.496-0.335,0.75-0.495c0.266-0.142,0.529-0.286,0.808-0.403
					c-0.191,0.238-0.398,0.451-0.603,0.663c-0.201,0.215-0.405,0.426-0.612,0.633c-0.401,0.423-0.811,0.83-1.197,1.256
					c-0.389,0.423-0.775,0.847-1.135,1.294C109.538,74.972,109.191,75.427,108.893,75.95z"/>
			</g>
			<g>
				<path fill="#204169" d="M113.114,81.574c0.269-0.83,0.599-1.631,0.949-2.421c0.347-0.794,0.728-1.569,1.116-2.342
					c0.4-0.767,0.807-1.529,1.249-2.274c0.438-0.747,0.896-1.482,1.414-2.183c-0.271,0.833-0.601,1.637-0.95,2.427
					c-0.346,0.792-0.728,1.567-1.116,2.336c-0.4,0.763-0.806,1.525-1.247,2.268C114.092,80.13,113.633,80.865,113.114,81.574z"/>
			</g>
			<g>
				<g>
					
						<ellipse transform="matrix(-0.2187 -0.9758 0.9758 -0.2187 71.345 278.2646)" fill="#F7996E" cx="147.071" cy="110.571" rx="3.452" ry="4.537"/>
				</g>
				<g>
					<path fill="#E4415B" d="M147.182,114.045c-0.993,0.269-2.063,0.232-3.032-0.197c-0.482-0.218-0.938-0.544-1.297-1.007
						c-0.089-0.117-0.178-0.232-0.246-0.371c-0.036-0.066-0.074-0.133-0.107-0.201l-0.087-0.218
						c-0.064-0.142-0.091-0.303-0.131-0.458c-0.036-0.157-0.041-0.324-0.059-0.485l0.008-0.248c0.003-0.083,0.001-0.165,0.018-0.246
						c0.03-0.163,0.045-0.33,0.1-0.486l0.073-0.235c0.031-0.075,0.063-0.149,0.094-0.224c0.06-0.151,0.141-0.287,0.22-0.422
						c0.327-0.538,0.759-0.962,1.223-1.287c0.934-0.642,1.995-0.915,3-0.866c-0.988,0.29-1.928,0.721-2.7,1.39
						c-0.384,0.333-0.72,0.722-0.959,1.159c-0.239,0.436-0.372,0.916-0.357,1.386c0.017,0.469,0.178,0.917,0.443,1.296
						c0.265,0.383,0.624,0.695,1.026,0.94C145.221,113.756,146.183,113.974,147.182,114.045z"/>
				</g>
			</g>
		</g>
		<g>
			<path fill="#FCC8A1" d="M151.86,176.117c0,0,9.174-10.617,13.938-15.383c4.762-4.766,6.977-13.266,6.977-13.266l-43.266,5.565
				c0,0,3.092,6.273,13.708,14.422L151.86,176.117z"/>
		</g>
		<g opacity="0.8">
			<path fill="#FFFFFF" d="M183.832,199.789c-0.063-0.053-0.12-0.107-0.169-0.158c0-0.018,0.007-0.064,0.022-0.143"/>
		</g>
		<g opacity="0.4">
			<path fill="#A65C3D" d="M126.48,299.984c0,0-20.769-29.129-32.55-90.076c-8.98-46.457-18.843-63.285-18.843-63.285
				s13.562,22.544,24.727,80.716C108.422,272.174,126.48,299.984,126.48,299.984z"/>
		</g>
		<g opacity="0.4">
			<path fill="#A65C3D" d="M169.486,299.984c-33.243-12.77-57.18-75.592-57.18-75.592s17.798,40.6,39.965,58.273
				c8.822,7.031,9.267,1.004,5.511-4.525c-3.274-4.822-8.477-12.518-10.676-19.25c0,0,15.408,29.365,38.062,41.094H169.486z"/>
		</g>
		<g opacity="0.4">
			<path fill="#A65C3D" d="M91.891,262.189c0,0,6.469,22.678,18.151,37.795h-5.637C104.405,299.984,97.32,285.762,91.891,262.189z"
				/>
		</g>
		<g opacity="0.4">
			<path fill="#A65C3D" d="M151.805,176.117l6.272-6.922c2.378-2.623,6.644-2.045,8.24,1.115l2.763,5.471
				c12.452-13.254,11.128-36.654,11.128-36.654s2.125,25.152-10.527,37.671l-0.601-1.018
				C169.077,175.781,163.934,162.303,151.805,176.117z"/>
		</g>
		<g opacity="0.4">
			<path fill="#A65C3D" d="M121.033,138.701c-6.481,21.119,10.171,39.182,10.171,39.182c0.467-4.893,3.285-8.33,5.728-10.434
				c1.921-1.652,4.792-1.527,6.572,0.273l8.298,8.395c-4.144-3.697-8.691-8.537-12.314-7.68c-4.639,1.098-5.75,7.68-5.816,9.443
				l-2.22-1.621l-0.249,1.621C131.204,177.881,112.305,163.758,121.033,138.701z"/>
		</g>
		<g opacity="0.4">
			<path fill="#A65C3D" d="M79.552,197.635c0,0-0.548-9.219-4.54-24.824c-5.48-21.416-12.245-26.187-12.245-26.187
				S77.071,155.889,79.552,197.635z"/>
		</g>
		<g opacity="0.4">
			<path fill="#A65C3D" d="M54.626,156.127c0,0,10.246,8.342,13.961,23.959C68.585,180.086,67.746,164.533,54.626,156.127z"/>
		</g>
		<g>
			<g opacity="0.4">
				<path fill="#A65C3D" d="M44.409,141.833c0,0-0.916,0.544-1.842,1.74C43.543,142.485,44.409,141.833,44.409,141.833z"/>
			</g>
			<g opacity="0.4">
				<path fill="#A65C3D" d="M40.691,148.598c0.167-2.281,1.025-3.929,1.876-5.025c-0.872,0.972-1.833,2.296-2.346,3.818
					c-10.858-4.825-12.957-17.501-12.957-17.501c1.864,15.064,11.176,17.772,13.41,18.104c-1.068,3.392,1.666,10.169,8.908,10.948
					C47.25,157.822,40.295,154.023,40.691,148.598z"/>
			</g>
		</g>
		<g opacity="0.4">
			<path fill="#A65C3D" d="M26.414,152.148c0,0,9.211,9.377,22.034,7.133C48.447,159.281,39.64,164.471,26.414,152.148z"/>
		</g>
		<g opacity="0.4">
			<path fill="#A65C3D" d="M10.259,166.885c0,0,20.05,8.006,34.15-1.912C44.409,164.975,35.569,177.547,10.259,166.885z"/>
		</g>
		<g opacity="0.4">
			<path fill="#A65C3D" d="M19.683,177.441c0,0,13.513,0.428,23.309-10.768C42.992,166.674,40.034,178.779,19.683,177.441z"/>
		</g>
		<g opacity="0.4">
			<path fill="#A65C3D" d="M46.938,180.873c0,0,2.744-7.604-1.81-15.248C45.129,165.625,52.042,171.775,46.938,180.873z"/>
		</g>
		<g opacity="0.4">
			<path fill="#A65C3D" d="M94.69,138.803c0,0,3.907,2.744,7.401,17.085c3.957,16.24,9.834,26.244,17.444,31.527
				c0,0-8.173-5.283-13.492-21.129C99.891,147.945,100.047,143.127,94.69,138.803z"/>
		</g>
		<g opacity="0.4">
			<path fill="#A65C3D" d="M208.213,246.463c0,0-0.4-8.742,8.391-13.494C216.604,232.969,205.084,238.088,208.213,246.463z"/>
		</g>
		<g opacity="0.4">
			<path fill="#A65C3D" d="M205.596,205.125c0,0-1.613,11.602,0.766,23.227c0.574,2.803,0.695,5.682,0.342,8.52
				c-0.338,2.697-0.357,6.471,1.109,10.262c0,0-2.827-1.941-2.752-20.705C205.137,207.664,205.596,205.125,205.596,205.125z"/>
		</g>
		<g opacity="0.4">
			<path fill="#A65C3D" d="M233.047,208.035c-6.955,4.932-15.452,28.836-21.625,20.787c0,0,6.309,1.098,11.027-7.605
				C228.302,210.424,233.047,208.035,233.047,208.035z"/>
		</g>
		<g opacity="0.4">
			<path fill="#A65C3D" d="M227.61,230.766c0,0,2.364-9.143,6.735-15.992c3.348-5.25,6.828-6.525,6-2.279
				c0,0-2.261-3.713-6.808,4.461C228.988,225.133,227.61,230.766,227.61,230.766z"/>
		</g>
		<g opacity="0.4">
			<path fill="#A65C3D" d="M248.062,238.209c0,0-12.695-9.754-28.354,2.496C219.705,240.705,239.048,221.846,248.062,238.209z"/>
		</g>
		<g opacity="0.4">
			<path fill="#A65C3D" d="M227.789,289.355c3.207-3.105,4.91-6.73,5.691-8.805c0.387-1.029-0.032-2.184-0.983-2.736
				c-4.274-2.488-9.784-2.668-9.784-2.668s3.784-0.494,6.777,0.568l-0.182,0.568c0,0,5.981,1.477,5.232,4.941
				C233.849,284.408,227.789,289.355,227.789,289.355z"/>
		</g>
		<g opacity="0.4">
			<path fill="#A65C3D" d="M228.872,251.189c2.396,2.625,6.809,10.055,0.331,25.275
				C232.915,275.033,237.057,260.209,228.872,251.189z"/>
		</g>
		<g>
			<path fill="#A65C3D" d="M228.872,251.189c0.545-0.184,1.105-0.322,1.668-0.439c0.563-0.117,1.131-0.217,1.701-0.291
				c1.143-0.145,2.3-0.213,3.452-0.188c2.312,0.045,4.619,0.465,6.8,1.242c1.091,0.393,2.137,0.9,3.145,1.471l0.741,0.449
				l0.717,0.49c0.119,0.082,0.24,0.16,0.356,0.248l0.344,0.268c0.225,0.18,0.458,0.352,0.678,0.541c1.76,1.5,3.263,3.283,4.48,5.23
				c-1.341-1.863-2.902-3.561-4.669-5.002c-1.783-1.42-3.78-2.564-5.922-3.338c-2.138-0.773-4.398-1.201-6.68-1.305
				c-1.14-0.053-2.283-0.025-3.423,0.076C231.121,250.736,229.986,250.914,228.872,251.189z"/>
		</g>
		<g opacity="0.4">
			<path fill="#A65C3D" d="M228.872,251.189c0,0,14.895-4.727,24.084,9.02C252.956,260.209,250.55,245.582,228.872,251.189z"/>
		</g>
		<g opacity="0.4">
			<path fill="#A65C3D" d="M187.579,212.377c0,0,2.298,18.389,15.318,29.928C202.897,242.303,194.977,234.451,187.579,212.377z"/>
		</g>
		<g opacity="0.4">
			<path fill="#A65C3D" d="M246.64,275.656c0,0-2.229,15.844-14.849,14.563C231.791,290.219,242.993,296.439,246.64,275.656z"/>
		</g>
		<g opacity="0.4">
			<path fill="#A65C3D" d="M207.661,299.684h-0.72c-10.009-12.902-13.851-28.828-13.851-28.828s-5.217-8.285-10.284-11.916
				c0.805,0.561,11.213,7.871,16.006,14.375c0,0-0.563,2.975,2.613,6.645c0,0-0.107,3.285,2.222,8.586
				S207.661,299.684,207.661,299.684z"/>
		</g>
		<g>
			<path fill="#A65C3D" d="M27.264,129.891c0.22,0.938,0.489,1.863,0.813,2.767c0.314,0.908,0.669,1.8,1.061,2.673
				c0.396,0.872,0.822,1.73,1.298,2.561c0.47,0.832,0.981,1.643,1.544,2.414c0.559,0.775,1.15,1.527,1.802,2.227
				c0.646,0.703,1.328,1.374,2.065,1.983l0.273,0.233l0.284,0.22l0.569,0.438c0.396,0.269,0.777,0.561,1.19,0.803
				c0.8,0.535,1.664,0.955,2.528,1.381c-1.798-0.683-3.522-1.625-5.031-2.848c-1.524-1.204-2.855-2.643-3.987-4.218
				c-1.135-1.577-2.062-3.293-2.806-5.08C28.13,133.66,27.56,131.798,27.264,129.891z"/>
		</g>
		<g>
			<path fill="#A65C3D" d="M49.575,158.957c-0.872-0.342-1.715-0.762-2.526-1.232c-0.809-0.477-1.593-1.004-2.313-1.609
				c-0.357-0.307-0.7-0.631-1.031-0.965c-0.161-0.17-0.328-0.338-0.481-0.516l-0.235-0.262l-0.228-0.27
				c-0.301-0.359-0.593-0.727-0.856-1.117c-0.139-0.191-0.256-0.395-0.385-0.59c-0.114-0.207-0.239-0.409-0.335-0.625
				c-0.426-0.842-0.677-1.794-0.685-2.757c0.023-0.957,0.145-1.906,0.455-2.814c0.309-0.902,0.75-1.764,1.34-2.508
				c0.589-0.743,1.281-1.412,2.105-1.875l0.019,0.032c-0.743,0.559-1.364,1.262-1.883,2.018c-0.521,0.756-0.919,1.59-1.198,2.46
				c-0.288,0.865-0.434,1.785-0.481,2.688c-0.014,0.907,0.167,1.818,0.517,2.669c0.175,0.428,0.385,0.842,0.639,1.23
				c0.247,0.395,0.535,0.76,0.842,1.109c0.619,0.695,1.341,1.285,2.079,1.846s1.491,1.098,2.27,1.605
				c0.78,0.504,1.577,0.984,2.388,1.449L49.575,158.957z"/>
		</g>
		<g>
			<path fill="#A65C3D" d="M60.349,146.389c0.138,0.135,0.263,0.28,0.384,0.432c0.122,0.146,0.239,0.313,0.322,0.495
				c0.167,0.364,0.224,0.788,0.147,1.19c-0.069,0.404-0.271,0.79-0.568,1.078c-0.142,0.152-0.325,0.265-0.5,0.363
				c-0.165,0.09-0.337,0.173-0.504,0.262c-0.674,0.348-1.351,0.7-1.988,1.117c-0.639,0.415-1.242,0.884-1.806,1.392
				c-0.291,0.246-0.558,0.518-0.837,0.771c-0.141,0.127-0.271,0.266-0.406,0.398c-0.132,0.137-0.274,0.26-0.401,0.4
				c-0.26,0.273-0.527,0.541-0.77,0.83l-0.375,0.426l-0.36,0.438c-0.252,0.283-0.466,0.592-0.703,0.889
				c-0.119,0.146-0.222,0.305-0.332,0.459l-0.33,0.461l-0.307,0.479l-0.155,0.238l-0.078,0.119c-0.029,0.045-0.059,0.09-0.095,0.129
				c-0.274,0.332-0.775,0.412-1.114,0.203l0.017-0.035c0.176,0.066,0.366,0.07,0.536,0.02c0.17-0.055,0.313-0.168,0.411-0.305
				c0.025-0.033,0.045-0.07,0.064-0.109l0.066-0.127l0.133-0.256c0.089-0.17,0.176-0.344,0.269-0.512
				c0.203-0.326,0.396-0.662,0.616-0.979c0.224-0.314,0.442-0.633,0.688-0.928l0.368-0.447c0.127-0.145,0.258-0.287,0.39-0.426
				c0.258-0.287,0.538-0.551,0.812-0.822c0.557-0.527,1.144-1.025,1.766-1.475c0.612-0.461,1.245-0.893,1.868-1.332l0.938-0.662
				c0.318-0.214,0.636-0.427,0.964-0.627c0.165-0.099,0.332-0.195,0.5-0.287c0.155-0.09,0.299-0.182,0.424-0.305
				c0.127-0.118,0.237-0.255,0.32-0.41c0.09-0.149,0.154-0.315,0.195-0.487c0.085-0.343,0.064-0.71-0.047-1.055
				c-0.12-0.338-0.341-0.661-0.548-0.978L60.349,146.389z"/>
		</g>
		<g>
			<path fill="#A65C3D" d="M26.414,152.148c0.746,0.668,1.531,1.285,2.347,1.857c0.812,0.578,1.651,1.117,2.509,1.621
				c1.723,0.996,3.53,1.842,5.41,2.484c0.94,0.318,1.895,0.592,2.865,0.807c0.97,0.207,1.95,0.377,2.938,0.471
				c0.99,0.094,1.984,0.148,2.979,0.115c0.999,0.004,1.989-0.113,2.985-0.225c-1.959,0.404-3.983,0.559-5.99,0.404l-0.752-0.063
				c-0.25-0.027-0.499-0.066-0.749-0.1l-0.374-0.051l-0.371-0.066c-0.248-0.045-0.497-0.086-0.743-0.139
				c-0.986-0.209-1.956-0.482-2.911-0.799c-1.903-0.66-3.731-1.531-5.438-2.59C29.415,154.814,27.808,153.586,26.414,152.148z"/>
		</g>
		<g>
			<path fill="#A65C3D" d="M10.267,166.869c2.812,0.912,5.685,1.598,8.581,2.15c0.722,0.148,1.449,0.277,2.177,0.396l1.096,0.162
				l1.101,0.125c1.471,0.137,2.951,0.172,4.425,0.123c1.474-0.049,2.943-0.195,4.4-0.393l1.089-0.17l1.082-0.215
				c0.362-0.066,0.716-0.166,1.074-0.248c0.356-0.086,0.716-0.166,1.067-0.277l1.059-0.301l1.043-0.357
				c0.352-0.107,0.689-0.254,1.031-0.389l0.511-0.205l0.256-0.102l0.25-0.117l1.002-0.465c0.333-0.156,0.652-0.344,0.978-0.514
				l0.489-0.258c0.161-0.09,0.317-0.191,0.474-0.285l0.95-0.572l0.021,0.029l-0.906,0.645c-0.152,0.105-0.301,0.219-0.457,0.318
				l-0.476,0.287c-0.32,0.189-0.632,0.395-0.958,0.568l-0.991,0.512c-1.343,0.633-2.727,1.203-4.165,1.596
				c-1.435,0.398-2.896,0.703-4.374,0.873c-1.476,0.18-2.961,0.271-4.443,0.248c-1.484-0.016-2.962-0.096-4.438-0.209
				c-1.477-0.113-2.952-0.262-4.419-0.494c-1.464-0.24-2.912-0.57-4.341-0.969c-1.426-0.41-2.839-0.867-4.2-1.459L10.267,166.869z"
				/>
		</g>
		<g>
			<path fill="#A65C3D" d="M19.683,177.424c2.198-0.131,4.364-0.49,6.505-0.953c0.536-0.109,1.072-0.232,1.604-0.365l0.798-0.209
				l0.789-0.24c1.044-0.342,2.06-0.773,3.044-1.256c0.988-0.482,1.941-1.027,2.881-1.584l0.698-0.434
				c0.23-0.146,0.454-0.303,0.682-0.455c0.458-0.297,0.894-0.629,1.343-0.943c1.763-1.299,3.405-2.752,4.95-4.326l0.028,0.025
				c-1.368,1.73-2.973,3.283-4.737,4.625c-1.785,1.314-3.718,2.428-5.758,3.279c-1.02,0.426-2.052,0.813-3.091,1.184
				c-1.04,0.369-2.088,0.725-3.159,1.004c-1.073,0.271-2.166,0.465-3.265,0.586c-1.098,0.117-2.209,0.176-3.312,0.098V177.424z"/>
		</g>
		<g>
			<path fill="#A65C3D" d="M46.938,180.873c0.169-0.637,0.297-1.279,0.391-1.932c0.101-0.646,0.165-1.299,0.208-1.949
				c0.082-1.307,0.055-2.617-0.096-3.91c-0.145-1.297-0.42-2.576-0.805-3.824c-0.396-1.246-0.902-2.459-1.508-3.631
				c0.733,1.096,1.338,2.287,1.789,3.537c0.222,0.625,0.411,1.264,0.563,1.91c0.144,0.648,0.263,1.305,0.339,1.965
				c0.07,0.662,0.114,1.324,0.117,1.99c-0.001,0.664-0.03,1.328-0.104,1.988C47.689,178.332,47.417,179.643,46.938,180.873z"/>
		</g>
		<g>
			<path fill="#A65C3D" d="M62.778,146.606c0.464,0.335,0.872,0.737,1.266,1.148c0.392,0.415,0.768,0.845,1.116,1.296
				c0.705,0.896,1.353,1.838,1.948,2.811c0.593,0.975,1.152,1.967,1.669,2.982c0.26,0.506,0.512,1.018,0.747,1.535l0.356,0.777
				l0.341,0.783c0.447,1.049,0.851,2.111,1.245,3.178c0.384,1.07,0.756,2.146,1.116,3.223c0.176,0.541,0.356,1.08,0.526,1.623
				c0.171,0.541,0.355,1.08,0.517,1.625l0.496,1.633l0.481,1.635c0.307,1.096,0.62,2.188,0.896,3.289l0.426,1.65l0.4,1.658
				c0.273,1.104,0.51,2.215,0.765,3.324c0.122,0.555,0.235,1.111,0.349,1.668c0.118,0.559,0.226,1.115,0.332,1.674
				c0.218,1.115,0.422,2.234,0.612,3.355l0.266,1.686l0.248,1.688c0.309,2.254,0.565,4.516,0.677,6.787l-0.038,0.002
				c-0.106-1.129-0.262-2.254-0.419-3.377c-0.076-0.563-0.165-1.125-0.247-1.686l-0.267-1.68c-0.362-2.24-0.779-4.473-1.214-6.699
				c-0.875-4.453-1.887-8.879-2.982-13.287c-0.292-1.098-0.579-2.195-0.908-3.281c-0.324-1.088-0.663-2.172-1.041-3.242
				c-0.18-0.539-0.379-1.07-0.574-1.604c-0.197-0.533-0.411-1.059-0.617-1.586l-0.65-1.572c-0.228-0.52-0.45-1.043-0.685-1.557
				c-0.448-1.039-0.953-2.055-1.451-3.072c-0.501-1.016-1.044-2.01-1.622-2.982c-0.579-0.969-1.18-1.932-1.858-2.837
				c-0.676-0.904-1.385-1.801-2.246-2.534L62.778,146.606z"/>
		</g>
		<g>
			<path fill="#A65C3D" d="M54.626,156.127c0.92,0.729,1.761,1.553,2.59,2.385c0.809,0.852,1.597,1.729,2.333,2.645
				c1.478,1.832,2.831,3.768,3.997,5.813c0.308,0.5,0.574,1.027,0.849,1.549l0.411,0.781l0.205,0.389l0.184,0.402l0.733,1.607
				c0.126,0.266,0.233,0.539,0.339,0.814l0.318,0.822l0.318,0.822c0.052,0.139,0.108,0.273,0.158,0.41l0.134,0.422l0.532,1.68
				c0.19,0.559,0.309,1.133,0.453,1.703c0.143,0.57,0.279,1.143,0.411,1.711c-0.172-0.559-0.343-1.121-0.508-1.684
				c-0.17-0.561-0.316-1.127-0.532-1.674l-0.589-1.652l-0.146-0.414c-0.051-0.137-0.112-0.271-0.167-0.406l-0.337-0.809
				c-0.867-2.172-1.934-4.258-3.092-6.285c-0.297-0.502-0.589-1.008-0.895-1.506l-0.955-1.469c-0.656-0.967-1.332-1.92-2.05-2.844
				C57.886,159.496,56.351,157.717,54.626,156.127z"/>
		</g>
		<g>
			<path fill="#A65C3D" d="M49.625,158.943l-1.21,1.363c-0.4,0.453-0.802,0.904-1.19,1.365c-0.396,0.455-0.781,0.922-1.164,1.389
				c-0.387,0.463-0.754,0.943-1.15,1.412c0.261-0.553,0.567-1.086,0.913-1.59c0.166-0.258,0.356-0.496,0.535-0.746
				c0.191-0.238,0.38-0.48,0.58-0.711c0.4-0.463,0.819-0.908,1.266-1.324C48.65,159.684,49.118,159.285,49.625,158.943z"/>
		</g>
		<g>
			<path fill="#A65C3D" d="M75.104,146.612c0.422,0.735,0.807,1.49,1.182,2.25c0.375,0.76,0.735,1.525,1.086,2.299
				c0.702,1.543,1.365,3.102,1.994,4.674c1.252,3.146,2.421,6.332,3.49,9.545c1.072,3.213,2.075,6.451,3.022,9.705
				c0.953,3.25,1.813,6.527,2.65,9.811c1.659,6.57,3.08,13.193,4.435,19.83c0.343,1.658,0.648,3.324,0.987,4.982l1.014,4.977
				c0.704,3.313,1.432,6.619,2.221,9.91c1.575,6.586,3.349,13.119,5.294,19.604c1.946,6.482,4.106,12.9,6.475,19.238
				c0.584,1.588,1.207,3.162,1.82,4.736c0.307,0.789,0.633,1.57,0.949,2.354l0.474,1.178l0.489,1.17
				c1.292,3.127,2.661,6.225,4.097,9.287c1.438,3.064,2.949,6.094,4.552,9.072c1.618,2.973,3.269,5.934,5.158,8.742l-0.03,0.023
				c-0.975-1.389-1.875-2.824-2.754-4.271c-0.877-1.451-1.718-2.92-2.539-4.402c-1.63-2.971-3.168-5.99-4.635-9.043
				c-1.466-3.055-2.861-6.145-4.182-9.266c-1.329-3.117-2.577-6.268-3.765-9.441c-1.201-3.17-2.321-6.367-3.405-9.576
				c-0.521-1.613-1.055-3.221-1.562-4.838l-0.75-2.426l-0.375-1.215l-0.358-1.219c-1.931-6.496-3.627-13.057-5.156-19.658
				c-0.771-3.299-1.482-6.607-2.164-9.926l-0.986-4.984l-0.492-2.49c-0.167-0.83-0.33-1.66-0.506-2.488
				c-0.682-3.316-1.406-6.625-2.179-9.922c-0.771-3.295-1.575-6.584-2.431-9.857c-0.841-3.279-1.732-6.543-2.666-9.797
				c-0.935-3.254-1.921-6.49-2.979-9.705c-1.058-3.213-2.177-6.406-3.399-9.563c-0.618-1.574-1.249-3.145-1.923-4.697
				c-0.337-0.777-0.684-1.548-1.044-2.313c-0.361-0.764-0.733-1.526-1.143-2.266L75.104,146.612z"/>
		</g>
		<g>
			<path fill="#A65C3D" d="M112.324,224.387c3.089,7.463,6.538,14.77,10.206,21.961c0.915,1.799,1.846,3.59,2.802,5.369
				c0.953,1.779,1.929,3.547,2.947,5.291c2.018,3.498,4.174,6.914,6.444,10.252c4.546,6.668,9.524,13.059,15.18,18.809
				c0.703,0.723,1.435,1.418,2.16,2.113l1.109,1.027c0.368,0.342,0.75,0.67,1.126,1.006c1.514,1.33,3.076,2.602,4.702,3.793
				c3.256,2.369,6.746,4.441,10.494,5.955L169.48,300c-3.793-1.404-7.348-3.414-10.652-5.752c-3.287-2.363-6.361-5.023-9.201-7.906
				c-2.862-2.863-5.505-5.939-8.008-9.115c-2.506-3.176-4.836-6.484-7.067-9.855c-1.111-1.688-2.186-3.396-3.256-5.111
				c-1.064-1.719-2.098-3.455-3.127-5.191c-2.041-3.488-4.034-7.004-5.914-10.584c-0.929-1.793-1.851-3.592-2.729-5.412
				c-0.879-1.818-1.74-3.648-2.577-5.486c-1.66-3.686-3.249-7.402-4.657-11.193L112.324,224.387z"/>
		</g>
		<g>
			<path fill="#A65C3D" d="M94.701,138.788c0.468,0.354,0.847,0.804,1.208,1.258l0.267,0.345l0.25,0.359
				c0.083,0.119,0.168,0.237,0.249,0.36l0.229,0.371c0.156,0.247,0.309,0.495,0.447,0.75c0.14,0.254,0.288,0.506,0.424,0.764
				c0.258,0.521,0.541,1.031,0.766,1.567l0.356,0.795c0.121,0.266,0.222,0.538,0.332,0.805l0.326,0.81
				c0.109,0.27,0.201,0.546,0.303,0.817c0.413,1.088,0.743,2.202,1.092,3.311c0.305,1.119,0.623,2.238,0.881,3.369
				c0.274,1.127,0.532,2.256,0.822,3.379c0.57,2.244,1.247,4.463,2.014,6.646c0.779,2.18,1.618,4.338,2.571,6.443
				c0.471,1.057,0.978,2.096,1.512,3.117c0.532,1.027,1.09,2.037,1.688,3.023c1.195,1.973,2.528,3.865,4.04,5.611
				c1.508,1.744,3.194,3.344,5.065,4.713l-0.021,0.031c-1.94-1.273-3.701-2.826-5.264-4.547c-1.562-1.729-2.951-3.613-4.152-5.605
				c-1.22-1.98-2.266-4.066-3.195-6.197c-0.938-2.127-1.732-4.313-2.442-6.521c-0.71-2.211-1.335-4.443-1.942-6.682
				c-0.155-0.559-0.292-1.121-0.439-1.684l-0.458-1.674c-0.294-1.119-0.648-2.223-0.979-3.33c-0.353-1.101-0.709-2.202-1.105-3.287
				c-0.099-0.271-0.186-0.547-0.292-0.816l-0.314-0.808c-0.108-0.267-0.205-0.54-0.32-0.805l-0.345-0.794l-0.172-0.397l-0.184-0.393
				l-0.367-0.784c-0.127-0.258-0.265-0.512-0.398-0.769c-0.129-0.258-0.275-0.508-0.421-0.756l-0.217-0.375l-0.231-0.366
				l-0.231-0.366l-0.248-0.354c-0.335-0.467-0.694-0.929-1.126-1.306L94.701,138.788z"/>
		</g>
		<g>
			<path fill="#A65C3D" d="M112.29,142.21c-0.137,0.561-0.209,1.13-0.235,1.703c-0.006,0.144-0.019,0.286-0.021,0.428l-0.001,0.428
				c-0.007,0.287,0.017,0.57,0.027,0.856c0.07,1.139,0.261,2.268,0.536,3.375l0.22,0.828c0.078,0.275,0.18,0.542,0.265,0.814
				c0.159,0.549,0.396,1.073,0.593,1.612c0.094,0.27,0.229,0.525,0.341,0.789l0.349,0.789c0.248,0.518,0.519,1.025,0.766,1.549
				c-0.318-0.48-0.624-0.971-0.931-1.465l-0.409-0.766c-0.133-0.26-0.278-0.51-0.388-0.779c-0.234-0.531-0.479-1.06-0.662-1.614
				c-0.095-0.274-0.197-0.547-0.281-0.825l-0.233-0.841c-0.273-1.132-0.453-2.291-0.464-3.457
				C111.757,144.474,111.878,143.294,112.29,142.21z"/>
		</g>
		<g>
			<path fill="#A65C3D" d="M217.595,183.766c-0.179,1.789-0.647,3.549-1.272,5.238c-0.311,0.848-0.678,1.676-1.076,2.486
				c-0.405,0.807-0.856,1.592-1.34,2.355c-0.484,0.764-1.023,1.492-1.585,2.199c-0.567,0.703-1.181,1.369-1.819,2.006
				c-1.291,1.264-2.726,2.377-4.259,3.311c1.452-1.057,2.807-2.234,4.048-3.518c1.227-1.299,2.341-2.699,3.298-4.203
				c0.966-1.498,1.785-3.09,2.459-4.744c0.335-0.828,0.642-1.668,0.899-2.523C217.213,185.52,217.435,184.65,217.595,183.766z"/>
		</g>
		<g>
			<path fill="#A65C3D" d="M208.213,246.463c-0.084-1.393,0.109-2.801,0.479-4.152c0.183-0.678,0.423-1.34,0.7-1.984
				c0.28-0.645,0.616-1.266,0.984-1.865c0.745-1.195,1.672-2.275,2.726-3.201c1.058-0.922,2.243-1.689,3.502-2.289
				c-1.188,0.729-2.297,1.566-3.302,2.508c-0.49,0.482-0.976,0.971-1.402,1.512c-0.435,0.531-0.843,1.086-1.2,1.672
				c-0.734,1.162-1.305,2.424-1.724,3.734c-0.206,0.658-0.382,1.326-0.51,2.006C208.33,245.08,208.242,245.768,208.213,246.463z"/>
		</g>
		<g>
			<path fill="#A65C3D" d="M205.615,205.127c-0.3,3.514-0.394,7.035-0.385,10.557c-0.002,0.438,0.005,0.879,0.01,1.32
				c0.003,0.439,0.005,0.881,0.024,1.32l0.043,1.32c0.02,0.439,0.058,0.879,0.087,1.32c0.054,0.877,0.169,1.752,0.271,2.627
				c0.043,0.438,0.121,0.871,0.192,1.309l0.213,1.303l0.528,2.59c0.175,0.871,0.303,1.75,0.385,2.633
				c0.164,1.768,0.152,3.555-0.064,5.318c-0.227,1.738-0.3,3.492-0.153,5.24c0.139,1.744,0.491,3.477,1.064,5.145l-0.035,0.012
				c-0.692-1.625-1.124-3.363-1.324-5.129c-0.195-1.764-0.172-3.557,0.047-5.314c0.202-1.738,0.245-3.494,0.11-5.242
				c-0.072-0.873-0.175-1.742-0.324-2.607c-0.159-0.861-0.292-1.742-0.438-2.609c-0.113-0.877-0.234-1.752-0.333-2.629
				c-0.092-0.877-0.193-1.756-0.262-2.635c-0.174-1.756-0.29-3.518-0.355-5.285c-0.018-0.883-0.031-1.766-0.006-2.648l0.012-0.664
				l0.026-0.66c0.021-0.443,0.037-0.883,0.068-1.322c0.113-1.764,0.272-3.525,0.563-5.268H205.615z"/>
		</g>
		<g>
			<path fill="#A65C3D" d="M233.058,208.051c-0.539,0.432-1.026,0.916-1.49,1.424c-0.466,0.506-0.895,1.045-1.316,1.586
				c-0.84,1.09-1.622,2.225-2.409,3.357c-0.79,1.133-1.579,2.268-2.329,3.43c-0.749,1.16-1.463,2.342-2.185,3.523
				c-0.718,1.182-1.46,2.354-2.255,3.488c-0.798,1.133-1.63,2.252-2.59,3.266c-0.486,0.504-0.995,0.988-1.563,1.406
				c-0.287,0.209-0.582,0.404-0.899,0.568c-0.312,0.168-0.647,0.303-0.995,0.391c-0.694,0.197-1.471,0.105-2.099-0.229
				c-0.313-0.17-0.602-0.379-0.847-0.629c-0.131-0.115-0.238-0.256-0.356-0.383c-0.111-0.133-0.21-0.275-0.315-0.414l0.029-0.023
				c0.445,0.523,0.963,0.996,1.574,1.277c0.61,0.281,1.305,0.314,1.938,0.115c0.317-0.094,0.625-0.227,0.915-0.396
				c0.294-0.164,0.568-0.359,0.836-0.566c0.53-0.42,1.025-0.891,1.489-1.393c1.863-2.008,3.401-4.316,4.965-6.59
				c0.774-1.145,1.526-2.305,2.255-3.48c0.728-1.174,1.423-2.371,2.171-3.537c0.753-1.164,1.56-2.293,2.441-3.365
				c0.889-1.061,1.847-2.098,3.015-2.859L233.058,208.051z"/>
		</g>
		<g>
			<path fill="#A65C3D" d="M227.592,230.76c0.233-1.135,0.538-2.252,0.88-3.359c0.343-1.107,0.718-2.201,1.151-3.275
				c0.222-0.535,0.45-1.068,0.688-1.596l0.719-1.58c0.477-1.055,0.952-2.107,1.458-3.152c0.503-1.045,1.052-2.066,1.664-3.055
				c0.61-0.988,1.287-1.945,2.075-2.811c0.397-0.432,0.816-0.844,1.28-1.209c0.466-0.361,0.969-0.701,1.569-0.859
				c0.294-0.076,0.651-0.088,0.941,0.094c0.295,0.182,0.427,0.504,0.483,0.795c0.058,0.297,0.048,0.598,0.02,0.887
				c-0.031,0.293-0.085,0.578-0.157,0.859l-0.038-0.008c0.073-0.568,0.124-1.158-0.01-1.697c-0.067-0.264-0.201-0.512-0.421-0.625
				c-0.214-0.115-0.487-0.094-0.74-0.018c-0.516,0.162-0.983,0.498-1.416,0.855c-0.43,0.365-0.835,0.768-1.213,1.195
				c-1.524,1.699-2.713,3.689-3.85,5.693c-0.561,1.008-1.082,2.037-1.535,3.102c-0.228,0.531-0.439,1.068-0.637,1.611
				c-0.203,0.539-0.396,1.084-0.588,1.627l-1.164,3.258c-0.38,1.088-0.757,2.18-1.122,3.277L227.592,230.76z"/>
		</g>
		<g>
			<path fill="#A65C3D" d="M248.062,238.209c-1.057-0.709-2.197-1.281-3.371-1.764c-1.171-0.486-2.381-0.871-3.615-1.152
				c-2.466-0.561-5.02-0.738-7.528-0.436c-2.511,0.27-4.972,0.971-7.284,1.998c-0.287,0.131-0.581,0.25-0.867,0.389l-0.848,0.432
				l-0.424,0.215c-0.141,0.074-0.275,0.156-0.413,0.234l-0.824,0.477c-0.28,0.15-0.539,0.332-0.811,0.5l-0.807,0.512l-1.563,1.094
				c0.5-0.393,0.997-0.793,1.507-1.176l0.782-0.549c0.264-0.182,0.518-0.375,0.792-0.539l0.816-0.502
				c0.137-0.084,0.271-0.168,0.41-0.248l0.42-0.23l0.844-0.455c0.283-0.146,0.576-0.277,0.863-0.414
				c0.572-0.291,1.174-0.514,1.769-0.752c0.298-0.121,0.606-0.207,0.907-0.314c0.306-0.1,0.607-0.207,0.917-0.285l0.929-0.254
				l0.939-0.203c0.313-0.074,0.631-0.119,0.948-0.17c0.316-0.047,0.632-0.107,0.953-0.131c1.274-0.146,2.564-0.16,3.844-0.074
				c1.28,0.09,2.555,0.277,3.795,0.602C243.618,235.65,246.017,236.678,248.062,238.209z"/>
		</g>
		<g>
			<path fill="#A65C3D" d="M211.395,248.291c0.271-0.398,0.666-0.695,1.087-0.922c0.209-0.121,0.439-0.197,0.665-0.285
				c0.233-0.059,0.467-0.135,0.707-0.154c0.957-0.139,1.935-0.02,2.859,0.223c0.229,0.068,0.462,0.129,0.692,0.203l0.672,0.256
				c0.112,0.043,0.225,0.084,0.333,0.133l0.325,0.152l0.647,0.309c0.844,0.424,1.69,0.832,2.565,1.174
				c1.738,0.686,3.61,1.193,5.504,0.781c0.248,0.018,0.487,0.104,0.69,0.244c0.104,0.07,0.19,0.158,0.275,0.238
				c0.087,0.082,0.17,0.168,0.255,0.252c0.336,0.338,0.646,0.701,0.936,1.078c0.577,0.758,1.079,1.574,1.495,2.432
				c0.843,1.715,1.33,3.596,1.538,5.492c0.216,1.9,0.152,3.82-0.089,5.713c-0.521,3.781-1.748,7.426-3.328,10.867l-0.033-0.016
				c1.358-3.531,2.481-7.166,2.96-10.906c0.226-1.863,0.321-3.752,0.136-5.623c-0.183-1.867-0.605-3.719-1.372-5.439
				c-0.389-0.857-0.844-1.688-1.413-2.439c-0.283-0.377-0.583-0.738-0.912-1.078c-0.083-0.082-0.163-0.172-0.249-0.25
				c-0.089-0.082-0.169-0.162-0.264-0.223c-0.188-0.127-0.41-0.205-0.634-0.219c-0.111-0.008-0.225,0.002-0.334,0.025
				c-0.111,0.023-0.232,0.061-0.349,0.078c-0.237,0.047-0.477,0.061-0.717,0.078c-0.479,0.025-0.959-0.01-1.434-0.076
				c-0.948-0.125-1.874-0.395-2.771-0.715c-0.898-0.33-1.765-0.736-2.609-1.172l-0.632-0.307l-0.316-0.154
				c-0.106-0.049-0.216-0.086-0.324-0.133l-0.652-0.262c-0.222-0.076-0.444-0.139-0.669-0.211c-0.895-0.252-1.828-0.412-2.755-0.307
				c-0.232,0.008-0.457,0.078-0.686,0.121c-0.221,0.07-0.447,0.131-0.655,0.236l-0.16,0.072l-0.15,0.088l-0.152,0.09l-0.143,0.104
				c-0.188,0.137-0.367,0.291-0.512,0.477L211.395,248.291z"/>
		</g>
		<g>
			<path fill="#A65C3D" d="M222.716,275.127c1.243-0.008,2.484,0.139,3.711,0.354c1.223,0.227,2.437,0.545,3.6,1.002
				c0.288,0.119,0.573,0.248,0.858,0.373l0.838,0.418l0.81,0.469c0.272,0.168,0.51,0.389,0.696,0.646
				c0.377,0.512,0.534,1.18,0.419,1.807c-0.03,0.156-0.076,0.313-0.132,0.457l-0.16,0.438c-0.111,0.291-0.223,0.58-0.345,0.867
				c-0.476,1.146-1.043,2.264-1.703,3.322c-0.659,1.059-1.393,2.076-2.226,3.01c-0.837,0.93-1.765,1.771-2.753,2.535
				c-0.996,0.752-2.076,1.385-3.194,1.922l-0.017-0.033c1.057-0.646,2.085-1.334,3.029-2.121c0.944-0.789,1.821-1.652,2.634-2.572
				c0.807-0.926,1.555-1.902,2.227-2.934c0.669-1.029,1.276-2.104,1.814-3.215c0.135-0.279,0.259-0.561,0.384-0.844
				c0.116-0.285,0.256-0.566,0.313-0.857c0.122-0.588-0.015-1.232-0.386-1.711c-0.183-0.238-0.415-0.438-0.677-0.582l-0.827-0.416
				l-0.847-0.363l-0.862-0.32c-1.16-0.408-2.345-0.744-3.55-1.008c-0.6-0.135-1.206-0.252-1.814-0.352
				c-0.608-0.102-1.222-0.189-1.836-0.254L222.716,275.127z"/>
		</g>
		<g>
			<path fill="#A65C3D" d="M228.872,251.189c0.545-0.184,1.105-0.322,1.668-0.439c0.563-0.117,1.131-0.217,1.701-0.291
				c1.143-0.145,2.3-0.213,3.452-0.188c2.312,0.045,4.619,0.465,6.8,1.242c1.091,0.393,2.137,0.9,3.145,1.471l0.741,0.449
				l0.717,0.49c0.119,0.082,0.24,0.16,0.356,0.248l0.344,0.268c0.225,0.18,0.458,0.352,0.678,0.541c1.76,1.5,3.263,3.283,4.48,5.23
				c-1.341-1.863-2.902-3.561-4.669-5.002c-1.783-1.42-3.78-2.564-5.922-3.338c-2.138-0.773-4.398-1.201-6.68-1.305
				c-1.14-0.053-2.283-0.025-3.423,0.076C231.121,250.736,229.986,250.914,228.872,251.189z"/>
		</g>
		<g>
			<path fill="#A65C3D" d="M246.64,275.656c-0.245,1.912-0.754,3.791-1.476,5.59c-0.723,1.795-1.686,3.512-2.945,5
				c-0.64,0.734-1.352,1.412-2.137,1.994c-0.782,0.586-1.651,1.053-2.565,1.396c-0.45,0.188-0.926,0.303-1.394,0.432
				c-0.239,0.049-0.479,0.088-0.719,0.131c-0.119,0.02-0.239,0.045-0.36,0.059l-0.362,0.031c-0.242,0.014-0.483,0.045-0.725,0.049
				l-0.727-0.006c-0.121-0.004-0.24,0.004-0.361-0.01l-0.36-0.033l-0.718-0.07c0.963,0.023,1.925,0.053,2.871-0.115l0.354-0.047
				c0.118-0.018,0.232-0.049,0.351-0.072c0.232-0.055,0.466-0.1,0.697-0.158l0.681-0.213c0.231-0.061,0.443-0.168,0.666-0.254
				c1.765-0.711,3.285-1.926,4.521-3.361c0.622-0.719,1.164-1.506,1.655-2.322c0.495-0.816,0.92-1.672,1.308-2.547
				c0.382-0.877,0.719-1.777,1.008-2.691C246.199,277.527,246.446,276.6,246.64,275.656z"/>
		</g>
		<g>
			<path fill="#A65C3D" d="M147.121,258.881c2.373,4.088,4.953,8.047,7.637,11.934c0.666,0.977,1.342,1.945,2.03,2.902l1.039,1.436
				l1.073,1.41c1.443,1.869,2.975,3.672,4.555,5.428c1.586,1.752,3.23,3.445,4.908,5.107l1.273,1.227
				c0.429,0.408,0.868,0.799,1.302,1.199l0.652,0.598l0.665,0.584c0.445,0.387,0.881,0.785,1.333,1.162l1.362,1.127
				c0.226,0.191,0.459,0.369,0.692,0.549l0.694,0.547l0.696,0.545c0.233,0.18,0.474,0.352,0.711,0.525
				c0.478,0.346,0.949,0.699,1.431,1.041l1.463,0.996c0.481,0.342,0.99,0.639,1.488,0.957c0.989,0.646,2.023,1.215,3.046,1.809
				l-0.018,0.035c-2.118-1.055-4.172-2.242-6.147-3.555c-1.956-1.336-3.864-2.748-5.673-4.279
				c-3.627-3.053-6.96-6.443-10.037-10.037c-1.536-1.801-3.026-3.637-4.502-5.486c-0.728-0.932-1.461-1.861-2.179-2.801
				c-0.365-0.465-0.713-0.945-1.069-1.416c-0.356-0.473-0.705-0.953-1.05-1.434s-0.682-0.965-1.018-1.453
				c-0.34-0.486-0.67-0.975-0.993-1.471c-0.651-0.986-1.286-1.988-1.911-2.992c-1.238-2.018-2.428-4.066-3.488-6.18L147.121,258.881
				z"/>
		</g>
		<g>
			<path fill="#A65C3D" d="M193.091,270.855c0.379,1.305,0.784,2.598,1.229,3.879c0.218,0.643,0.445,1.281,0.669,1.92l0.713,1.902
				c0.97,2.529,2.029,5.023,3.203,7.465l0.434,0.916l0.217,0.459l0.231,0.453l0.925,1.809c0.313,0.6,0.653,1.184,0.979,1.777
				l0.493,0.889c0.167,0.293,0.346,0.58,0.518,0.873l1.04,1.746l1.115,1.699l0.551,0.854l0.592,0.828
				c0.394,0.551,0.785,1.105,1.177,1.662c-0.423-0.531-0.842-1.064-1.257-1.602l-0.626-0.803l-0.587-0.832l-1.161-1.676l-1.09-1.725
				c-0.18-0.287-0.366-0.572-0.541-0.863l-0.505-0.887c-0.332-0.594-0.679-1.178-0.999-1.777l-0.943-1.809l-0.235-0.453
				l-0.221-0.457l-0.444-0.92l-0.436-0.922c-0.143-0.311-0.275-0.621-0.411-0.934c-0.269-0.625-0.555-1.24-0.807-1.871l-0.769-1.891
				c-0.243-0.635-0.479-1.27-0.713-1.91C194.513,276.1,193.698,273.502,193.091,270.855z"/>
		</g>
		<g>
			<path fill="#A65C3D" d="M198.936,274.33c-0.046,0.268-0.049,0.535-0.026,0.797c0.013,0.264,0.065,0.521,0.121,0.775
				c0.123,0.506,0.321,0.99,0.568,1.453c0.231,0.471,0.537,0.9,0.837,1.338c0.165,0.209,0.324,0.422,0.487,0.635
				c0.171,0.205,0.343,0.41,0.507,0.631c-0.221-0.158-0.431-0.332-0.642-0.504c-0.197-0.186-0.392-0.379-0.582-0.576
				c-0.088-0.105-0.176-0.209-0.261-0.316c-0.086-0.107-0.177-0.211-0.25-0.328l-0.228-0.344c-0.077-0.113-0.136-0.242-0.203-0.361
				c-0.252-0.49-0.451-1.02-0.521-1.572c-0.032-0.277-0.047-0.555-0.015-0.832C198.754,274.85,198.81,274.574,198.936,274.33z"/>
		</g>
		<g>
			<path fill="#A65C3D" d="M187.579,212.377c0.242,1.404,0.553,2.799,0.92,4.176c0.354,1.381,0.753,2.75,1.203,4.1
				c0.901,2.701,1.947,5.355,3.221,7.902c1.242,2.559,2.698,5.014,4.36,7.324c0.403,0.588,0.85,1.141,1.278,1.709l0.679,0.824
				l0.339,0.41l0.354,0.4l0.707,0.803l0.736,0.771l0.37,0.387l0.386,0.373l0.765,0.748c-2.176-1.852-4.146-3.951-5.852-6.254
				c-0.873-1.135-1.648-2.342-2.397-3.564c-0.751-1.221-1.425-2.486-2.067-3.764c-0.632-1.285-1.201-2.604-1.728-3.934
				c-0.525-1.332-1.014-2.678-1.428-4.047C188.592,218.006,187.921,215.213,187.579,212.377z"/>
		</g>
		<g>
			<path fill="#A65C3D" d="M151.805,176.117c-0.02,1.402-0.018,2.801-0.015,4.199c0.01,1.398,0.03,2.795,0.077,4.191
				c0.033,1.396,0.111,2.791,0.196,4.186l0.071,1.047c0.025,0.348,0.059,0.695,0.088,1.043c0.039,0.699,0.141,1.393,0.193,2.092
				c-0.282-1.371-0.508-2.76-0.647-4.158c-0.143-1.395-0.237-2.795-0.28-4.197c-0.037-1.402-0.04-2.807,0.008-4.207
				C151.543,178.908,151.637,177.508,151.805,176.117z"/>
		</g>
		<g>
			<path fill="#A65C3D" d="M131.191,177.895c-1.218-1.273-2.306-2.668-3.325-4.107c-1.012-1.443-1.95-2.941-2.782-4.496
				c-0.826-1.561-1.548-3.172-2.222-4.797l-0.497-1.225l-0.472-1.232c-0.284-0.834-0.599-1.658-0.847-2.504
				c-0.527-1.682-0.963-3.4-1.231-5.146l-0.11-0.652l-0.082-0.658c-0.049-0.439-0.12-0.877-0.15-1.317l-0.093-1.323
				c-0.02-0.22-0.021-0.441-0.024-0.663l-0.01-0.664l-0.005-0.663c-0.004-0.222,0.015-0.441,0.022-0.663l0.063-1.325l0.14-1.318
				c0.025-0.22,0.044-0.439,0.075-0.66l0.108-0.653c0.072-0.436,0.142-0.872,0.227-1.306l0.301-1.288
				c0.053-0.215,0.095-0.431,0.156-0.643l0.193-0.633l0.391-1.262l0.036,0.011l-0.309,1.283l-0.155,0.639
				c-0.045,0.214-0.083,0.43-0.125,0.646l-0.244,1.292c-0.066,0.434-0.114,0.87-0.179,1.302l-0.089,0.65
				c-0.023,0.217-0.036,0.436-0.055,0.653l-0.104,1.307c-0.012,0.876-0.081,1.75-0.04,2.624c0.008,1.749,0.163,3.495,0.415,5.228
				c0.247,1.734,0.624,3.449,1.078,5.143c0.459,1.693,1.029,3.359,1.73,4.973c0.697,1.611,1.518,3.168,2.386,4.691
				c1.726,3.051,3.644,6,5.859,8.732L131.191,177.895z"/>
		</g>
		<g>
			<path fill="#A65C3D" d="M151.79,176.131c-1.921-1.764-3.782-3.584-5.59-5.457c-0.897-0.945-1.771-1.91-2.678-2.848
				c-0.445-0.465-0.982-0.844-1.576-1.088c-0.592-0.248-1.24-0.355-1.874-0.344c-0.637,0.016-1.265,0.164-1.841,0.422
				c-0.146,0.059-0.28,0.143-0.42,0.213c-0.136,0.08-0.263,0.174-0.395,0.256l-0.368,0.293l-0.358,0.324
				c-0.946,0.877-1.81,1.84-2.56,2.887c-1.53,2.07-2.533,4.516-2.903,7.094l-0.038-0.002c0.126-2.613,1.076-5.188,2.613-7.328
				c0.759-1.078,1.668-2.039,2.65-2.914l0.37-0.322c0.136-0.104,0.269-0.207,0.405-0.307c0.144-0.088,0.286-0.18,0.432-0.26
				c0.153-0.07,0.298-0.152,0.457-0.213c0.621-0.256,1.296-0.367,1.959-0.354c0.665,0.012,1.321,0.17,1.927,0.43
				c0.606,0.26,1.148,0.66,1.61,1.123c0.925,0.916,1.88,1.803,2.815,2.711c1.853,1.828,3.651,3.711,5.392,5.65L151.79,176.131z"/>
		</g>
		<g>
			<path fill="#A65C3D" d="M169.061,175.787c-1.069-1.813-2.039-3.689-2.976-5.559l-0.184-0.338
				c-0.059-0.113-0.144-0.209-0.216-0.316c-0.078-0.102-0.143-0.217-0.23-0.307l-0.263-0.283c-0.084-0.1-0.186-0.178-0.283-0.262
				c-0.102-0.08-0.195-0.17-0.3-0.246l-0.328-0.207c-0.105-0.074-0.224-0.133-0.343-0.184c-0.119-0.055-0.234-0.113-0.354-0.162
				l-0.37-0.119c-0.064-0.018-0.124-0.043-0.188-0.055l-0.192-0.037c-0.128-0.021-0.256-0.051-0.383-0.066
				c-0.26-0.01-0.518-0.049-0.776-0.016c-0.13,0.01-0.258,0.014-0.387,0.029l-0.382,0.072c-0.062,0.014-0.126,0.021-0.189,0.039
				l-0.184,0.059c-0.121,0.041-0.243,0.076-0.366,0.121l-0.348,0.16l-0.176,0.078l-0.162,0.098l-0.327,0.197
				c-0.103,0.074-0.202,0.158-0.301,0.236c-0.21,0.145-0.379,0.338-0.561,0.514c-0.354,0.377-0.699,0.783-1.047,1.174
				c-0.349,0.395-0.704,0.783-1.057,1.172c-1.424,1.547-2.872,3.072-4.373,4.551l-0.027-0.025c1.324-1.639,2.702-3.229,4.102-4.797
				c0.707-0.783,1.412-1.555,2.146-2.32c0.2-0.184,0.383-0.385,0.614-0.533c0.111-0.078,0.217-0.162,0.331-0.234l0.355-0.197
				l0.179-0.096l0.189-0.076l0.38-0.145c0.129-0.035,0.262-0.064,0.391-0.1l0.196-0.049c0.066-0.016,0.133-0.02,0.199-0.029
				l0.397-0.051c0.133-0.008,0.268-0.006,0.402-0.008l0.2-0.002c0.065,0,0.133,0.012,0.198,0.018l0.398,0.035
				c0.13,0.021,0.262,0.055,0.393,0.078l0.195,0.039c0.064,0.014,0.127,0.041,0.19,0.061l0.382,0.119
				c0.123,0.047,0.244,0.105,0.366,0.158c0.977,0.42,1.816,1.172,2.368,2.104c0.073,0.115,0.139,0.23,0.197,0.348l0.182,0.352
				c0.119,0.234,0.239,0.467,0.354,0.705c0.235,0.473,0.466,0.943,0.69,1.418c0.456,0.947,0.896,1.904,1.309,2.875L169.061,175.787z
				"/>
		</g>
		<g>
			<path fill="#A65C3D" d="M180.225,139.127c0.139,1.631,0.145,3.272,0.103,4.907c-0.053,1.638-0.168,3.272-0.371,4.898
				c-0.21,1.625-0.495,3.237-0.805,4.844c-0.31,1.605-0.646,3.207-1.032,4.797c-0.776,3.18-1.868,6.297-3.337,9.236
				c-0.732,1.469-1.6,2.871-2.529,4.225c-0.949,1.338-2.014,2.592-3.161,3.758l-0.03-0.027c1.057-1.248,2.056-2.537,2.945-3.898
				c0.228-0.338,0.432-0.689,0.649-1.033l0.321-0.52l0.297-0.531c0.192-0.359,0.404-0.707,0.591-1.068l0.555-1.084
				c0.192-0.359,0.353-0.734,0.527-1.1c0.176-0.367,0.348-0.734,0.505-1.111c0.159-0.373,0.325-0.744,0.479-1.121l0.442-1.137
				c0.566-1.525,1.092-3.07,1.543-4.639c0.447-1.568,0.825-3.16,1.11-4.768l0.193-1.209l0.16-1.215
				c0.098-0.811,0.188-1.623,0.259-2.433c0.322-3.244,0.541-6.501,0.546-9.771L180.225,139.127z"/>
		</g>
		<g>
			<path fill="#A65C3D" d="M77.911,141.098c0.311-0.157,0.689-0.117,1.013,0.002c0.33,0.12,0.625,0.314,0.895,0.535
				c0.536,0.449,0.959,1.006,1.338,1.582c0.752,1.16,1.308,2.426,1.794,3.707c0.478,1.285,0.878,2.596,1.221,3.918
				c0.343,1.325,0.62,2.663,0.854,4.008c-0.377-1.313-0.75-2.623-1.139-3.929c-0.398-1.302-0.813-2.596-1.291-3.866
				c-0.117-0.318-0.244-0.633-0.367-0.947c-0.134-0.311-0.259-0.626-0.401-0.933c-0.271-0.62-0.582-1.22-0.921-1.802
				c-0.349-0.574-0.726-1.139-1.21-1.602c-0.24-0.232-0.506-0.441-0.808-0.58c-0.151-0.068-0.311-0.121-0.478-0.14
				C78.243,141.03,78.07,141.036,77.911,141.098z"/>
		</g>
		<g>
			<circle fill="#A65C3D" cx="154.722" cy="180.696" r="1.437"/>
		</g>
		<g>
			<ellipse fill="#A65C3D" cx="154.989" cy="187.83" rx="1.437" ry="1.437"/>
		</g>
		<g>
			<path fill="#FCC8A1" d="M177.846,225.111c0,0-1.857-1.287-4.009-3.107c-2.093-1.771-4.757-2.744-7.499-2.695
				c-1.502,0.027-3.139-0.025-4.462-0.279c-3.369-0.645-10.413-1.32-9.956,1.484c0.297,1.832,2.675,5.896,9.76,5.699
				c7.084-0.197,10.851,4.111,10.851,4.111L177.846,225.111z"/>
		</g>
		<g>
			<g>
				<g>
					<path fill="#204269" d="M152.116,215.662l-26.684-2.682c-2.125-0.213-3.528,2.154-2.323,3.916l17.822,26.039
						c1.387,2.025,3.672,3.248,6.126,3.281l19.015,0.246c1.928,0.025,3.221-1.967,2.416-3.717l-10.543-22.924
						C156.876,217.5,154.659,215.918,152.116,215.662z"/>
				</g>
			</g>
			<g>
				<g>
					<path fill="#1B1A2E" d="M167.868,243.729c-1.993-4.543-4.041-9.063-6.133-13.564c-1.052-2.246-2.129-4.482-3.168-6.736
						l-0.782-1.688c-0.263-0.561-0.494-1.139-0.818-1.674c-0.645-1.07-1.56-1.977-2.65-2.596c-0.543-0.311-1.13-0.549-1.736-0.709
						c-0.606-0.168-1.236-0.221-1.849-0.289l-3.701-0.395c-2.467-0.258-4.934-0.516-7.404-0.756c-2.47-0.252-4.939-0.477-7.41-0.705
						c-2.471-0.229-4.939-0.459-7.414-0.662l-0.002,0.027c2.464,0.291,4.931,0.559,7.397,0.822c2.467,0.27,4.933,0.541,7.403,0.785
						c2.466,0.256,4.938,0.494,7.406,0.732l3.705,0.35c0.619,0.059,1.232,0.102,1.826,0.254c0.596,0.146,1.171,0.373,1.709,0.668
						c1.076,0.592,2.006,1.463,2.642,2.52c0.322,0.523,0.558,1.1,0.823,1.662l0.774,1.691c1.032,2.254,2.031,4.527,3.053,6.787
						c2.056,4.516,4.153,9.014,6.306,13.484L167.868,243.729z"/>
				</g>
			</g>
			<g>
				<g>
					<path fill="#1B1A2E" d="M152.207,219.191l-5.149-0.518c-0.41-0.041-0.682,0.416-0.449,0.756l3.438,5.027
						c0.268,0.389,0.709,0.625,1.183,0.631l3.671,0.049c0.371,0.006,0.621-0.379,0.466-0.719l-2.035-4.424
						C153.127,219.547,152.699,219.242,152.207,219.191z"/>
				</g>
			</g>
		</g>
		<g>
			<path fill="#FCC8A1" d="M210.929,248.174c7.219,1.844,15.242,6.125,10.111,28.039l-6.958,5.643c0,0-7.902,0.939-15.146-7.525
				c-7.24-8.463-16.178-15.426-16.178-15.426s-3.277-0.232-8.837,1.723c-5.558,1.955-10.241-0.566-10.241-0.566
				s-6.179-2.818-12.026-4.545c-1.41-0.418-4.997-3.1-4.997-3.1l-7.379-2.148c0,0-9.645-0.801-9.645-5.34
				c0-1.271,0.858-2.219,2.351-2.225c0,0-2.152-1.146-1.872-3.717c0.417-3.811,6.875-2.896,13.136-1.902
				c6.26,0.994,19.864,0.613,19.864,0.613l1.08-2.639l-5.782-0.703c0,0-14.447,0.705-15.865-3.361
				c-1.883-5.402,9.314-4.961,14.04-4.422c2.64,0.305,5.306,0.578,10.608,0.439c2.722-0.07,4.822-1.58,10.658-1.904l10.454,9.361
				c0,0,3.648,0.848,6.421,3.197C203.313,244.949,206.249,246.98,210.929,248.174z"/>
		</g>
		<g>
			<path fill="#F7996E" d="M160.204,226.92c0.855-0.023,1.704-0.027,2.556-0.037l2.55-0.025l1.277-0.01l0.636-0.002
				c0.208-0.002,0.417-0.012,0.624-0.027c0.837-0.064,1.671-0.244,2.514-0.393c-0.801,0.301-1.617,0.563-2.479,0.686
				c-0.43,0.07-0.866,0.072-1.288,0.094c-0.427,0.014-0.854,0.023-1.28,0.029c-0.853,0.004-1.706-0.01-2.56-0.059
				C161.899,227.129,161.049,227.053,160.204,226.92z"/>
		</g>
		<g>
			<path fill="#F7996E" d="M166.359,255.006c-1.754-0.361-3.521-0.604-5.286-0.875c-0.881-0.143-1.764-0.293-2.654-0.391
				c-0.445-0.047-0.891-0.08-1.337-0.109c-0.449-0.029-0.896-0.031-1.343-0.049l-2.683-0.043l-1.346-0.02
				c-0.457-0.012-0.914-0.064-1.361-0.148c-0.225-0.043-0.451-0.1-0.666-0.152l-0.652-0.16c-0.434-0.109-0.867-0.221-1.3-0.334
				c-0.864-0.232-1.73-0.467-2.588-0.729l0.008-0.037c0.886,0.139,1.767,0.305,2.646,0.473c0.438,0.086,0.88,0.176,1.319,0.268
				c0.439,0.086,0.877,0.197,1.305,0.273c0.43,0.08,0.869,0.127,1.304,0.15l1.34,0.059c0.223,0.01,0.448,0.016,0.674,0.029
				l0.67,0.047c0.446,0.029,0.896,0.068,1.342,0.115c0.893,0.086,1.785,0.178,2.677,0.244c0.448,0.039,0.896,0.061,1.343,0.092
				c0.446,0.037,0.896,0.063,1.341,0.109c0.447,0.049,0.893,0.105,1.335,0.182c0.442,0.07,0.885,0.156,1.324,0.246
				c0.878,0.186,1.752,0.408,2.596,0.725L166.359,255.006z"/>
		</g>
		<g>
			<path fill="#F7996E" d="M174.217,247.471c-0.891-0.146-1.789-0.248-2.686-0.344c-0.898-0.098-1.797-0.174-2.696-0.242
				c-1.8-0.143-3.6-0.246-5.404-0.338c-1.802-0.105-3.607-0.195-5.416-0.225c-0.904-0.006-1.808-0.012-2.709,0.01
				c-0.451,0.006-0.904,0.016-1.355,0.027c-0.45,0.012-0.903,0.037-1.362,0.021c-0.911-0.025-1.83-0.182-2.693-0.469
				c-0.859-0.266-1.732-0.484-2.609-0.682c-1.757-0.381-3.543-0.621-5.337-0.756c-0.896-0.068-1.793-0.086-2.703-0.141
				c-0.453-0.027-0.906-0.074-1.358-0.111l-0.678-0.08c-0.225-0.023-0.45-0.053-0.673-0.09c-0.901-0.131-1.791-0.326-2.663-0.584
				c-0.218-0.063-0.434-0.139-0.648-0.211c-0.21-0.086-0.426-0.158-0.632-0.26c-0.416-0.184-0.826-0.389-1.177-0.684l0.025-0.029
				c0.362,0.262,0.781,0.441,1.198,0.6c0.208,0.086,0.424,0.146,0.637,0.219c0.218,0.057,0.429,0.127,0.649,0.18
				c0.871,0.223,1.759,0.367,2.651,0.475c0.221,0.031,0.445,0.055,0.671,0.072l0.671,0.064c0.448,0.023,0.897,0.061,1.347,0.072
				l1.352,0.045c0.454,0.008,0.907,0.035,1.359,0.061c1.813,0.125,3.616,0.398,5.387,0.811c0.883,0.205,1.76,0.451,2.621,0.74
				c0.845,0.299,1.719,0.494,2.613,0.549c0.445,0.029,0.896,0.02,1.35,0.023c0.452,0.004,0.904,0.004,1.355-0.002l2.712,0.002
				l2.714-0.004c0.903,0.01,1.81,0.008,2.714,0.037c1.809,0.049,3.617,0.176,5.417,0.359c1.798,0.195,3.601,0.424,5.364,0.844
				L174.217,247.471z"/>
		</g>
		<g>
			<path fill="#F7996E" d="M162.273,237.721c1.576-0.166,3.145-0.285,4.714-0.43c0.785-0.064,1.569-0.139,2.354-0.211
				c0.787-0.068,1.568-0.154,2.361-0.209c-0.766,0.211-1.541,0.379-2.324,0.502c-0.389,0.072-0.784,0.115-1.176,0.174
				c-0.395,0.045-0.786,0.088-1.183,0.125c-0.79,0.064-1.58,0.113-2.372,0.123S163.063,237.793,162.273,237.721z"/>
		</g>
		<g>
			<path fill="#F7996E" d="M171.326,236.123c-0.631-0.014-1.255-0.064-1.88-0.129c-0.622-0.063-1.244-0.145-1.864-0.234
				c-0.62-0.094-1.236-0.193-1.853-0.316c-0.616-0.119-1.23-0.252-1.836-0.42c0.631,0.012,1.257,0.064,1.879,0.129
				c0.624,0.063,1.245,0.146,1.865,0.232c0.619,0.096,1.238,0.195,1.853,0.316C170.106,235.822,170.72,235.953,171.326,236.123z"/>
		</g>
		<g>
			<path fill="#F7996E" d="M177.638,231.602c0.273,0.041,0.528,0.191,0.732,0.389c0.207,0.197,0.364,0.449,0.459,0.717
				c0.09,0.273,0.122,0.561,0.104,0.84c-0.006,0.137-0.041,0.273-0.065,0.408c-0.041,0.133-0.087,0.262-0.146,0.385
				c-0.023-0.139-0.028-0.271-0.04-0.402c-0.019-0.131-0.026-0.258-0.045-0.385c-0.036-0.252-0.092-0.49-0.167-0.723
				C178.308,232.375,178.044,231.963,177.638,231.602z"/>
		</g>
		<g>
			<path fill="#F7996E" d="M177.959,242.939c-0.066,0.361-0.271,0.686-0.518,0.957c-0.25,0.273-0.559,0.494-0.889,0.656
				c-0.332,0.168-0.69,0.262-1.049,0.322c-0.18,0.029-0.361,0.033-0.541,0.045c-0.183-0.01-0.361-0.018-0.54-0.043
				c0.173-0.059,0.345-0.098,0.514-0.143l0.5-0.146c0.161-0.064,0.328-0.1,0.483-0.174c0.077-0.033,0.159-0.059,0.234-0.094
				l0.229-0.107c0.3-0.148,0.59-0.318,0.854-0.529C177.503,243.471,177.749,243.234,177.959,242.939z"/>
		</g>
		<g>
			<path fill="#F7996E" d="M174.73,251.793c-0.005,0.219-0.11,0.422-0.23,0.604c-0.13,0.176-0.283,0.34-0.46,0.467
				c-0.349,0.27-0.75,0.447-1.156,0.586c-0.206,0.057-0.412,0.115-0.621,0.158c-0.21,0.027-0.419,0.078-0.631,0.088
				c-0.212,0.016-0.423,0.033-0.635,0.029c-0.212-0.008-0.422-0.014-0.634-0.039c0.206-0.061,0.41-0.104,0.614-0.146
				c0.205-0.041,0.406-0.098,0.606-0.137c0.402-0.094,0.797-0.193,1.185-0.314c0.384-0.123,0.76-0.273,1.106-0.469
				C174.213,252.418,174.55,252.178,174.73,251.793z"/>
		</g>
		<g>
			<path fill="#F7996E" d="M166.144,259.098c0.592,0.01,1.139-0.043,1.686-0.141c0.271-0.053,0.546-0.105,0.816-0.178
				c0.138-0.031,0.272-0.078,0.413-0.109c0.14-0.035,0.276-0.082,0.427-0.107c-0.11,0.1-0.229,0.191-0.351,0.277
				c-0.128,0.072-0.252,0.158-0.389,0.215c-0.268,0.131-0.558,0.219-0.852,0.273c-0.296,0.053-0.598,0.066-0.897,0.033
				C166.701,259.328,166.402,259.256,166.144,259.098z"/>
		</g>
		<g>
			<path fill="#F7996E" d="M182.757,258.904c0.444-0.137,0.874-0.287,1.298-0.451c0.423-0.168,0.835-0.348,1.236-0.555
				c0.403-0.197,0.792-0.424,1.17-0.67c0.386-0.24,0.739-0.523,1.118-0.799c-0.263,0.383-0.575,0.74-0.941,1.035
				c-0.173,0.16-0.375,0.283-0.565,0.422c-0.201,0.119-0.401,0.246-0.611,0.35c-0.421,0.209-0.86,0.381-1.315,0.494
				C183.691,258.848,183.225,258.922,182.757,258.904z"/>
		</g>
		<g>
			<path fill="#FCC8A1" d="M37.565,121.859c0,0-1.028,24.781,21.694,26.83c0,0,26.701-57.767,41.265-65.82
				c0,0,12.869,2.266,29.631-13.615l7.5-1.786l6.573-0.583c0,0,8.232,1.264,7.489-3.486c0,0,4.422,0.764,6.119-2.19
				c0.399-0.696,0.117-1.584-0.603-1.937c-0.524-0.258-1.224-0.616-2.069-1.078c0,0,1.878-0.402,2.908-1.897
				c0.471-0.68,0.239-1.62-0.487-2.012c-1.469-0.792-4.393-2.465-8.539-5.289c0,0,1.863,0.241,3.132-0.938
				c0.616-0.576,0.52-1.584-0.187-2.046c-1.256-0.827-3.439-2.259-5.409-3.542c-0.767-0.5-1.63-0.829-2.535-0.964
				c-1.887-0.285-5.36-0.838-7.893-1.419c-1.168-0.269-2.388-0.195-3.521,0.199c-2.654,0.924-8.11,2.613-15.107,3.663
				c-1.501,0.225-2.871,0.979-3.87,2.124c-3.647,4.186-12.953,14.466-19.424,18.173c-8.209,4.704-24.292,24.702-31.294,31.706
				C50.329,108.568,37.565,121.859,37.565,121.859z"/>
		</g>
		<g>
			<path fill="#F7996E" d="M154.865,58.32c0.319-0.106,0.622-0.22,0.917-0.345c0.292-0.127,0.571-0.275,0.839-0.438
				c0.136-0.076,0.259-0.172,0.392-0.26c0.123-0.096,0.25-0.189,0.367-0.297c0.246-0.203,0.455-0.443,0.693-0.684
				c-0.102,0.318-0.257,0.631-0.481,0.891c-0.101,0.143-0.234,0.248-0.355,0.372c-0.134,0.106-0.27,0.216-0.419,0.301
				c-0.292,0.18-0.612,0.313-0.943,0.394C155.545,58.333,155.201,58.369,154.865,58.32z"/>
		</g>
		<g>
			<path fill="#F7996E" d="M151.715,63.4c0.955,0.055,1.908-0.002,2.825-0.205c0.91-0.207,1.786-0.583,2.447-1.216
				c0.08-0.082,0.165-0.157,0.238-0.245l0.111-0.129l0.103-0.137c0.072-0.089,0.128-0.188,0.19-0.282
				c0.067-0.098,0.103-0.186,0.143-0.284c0.07-0.195,0.083-0.41,0.05-0.617c-0.042-0.207-0.129-0.406-0.264-0.573
				c-0.137-0.168-0.31-0.29-0.52-0.388c-0.208-0.101-0.432-0.184-0.653-0.273c-0.446-0.178-0.892-0.375-1.289-0.645
				c0.44,0.194,0.891,0.339,1.352,0.467c0.229,0.068,0.46,0.132,0.691,0.219c0.231,0.082,0.47,0.229,0.646,0.425
				c0.181,0.195,0.306,0.44,0.363,0.699c0.056,0.261,0.048,0.54-0.032,0.797c-0.043,0.125-0.105,0.258-0.171,0.361
				c-0.066,0.105-0.129,0.213-0.208,0.312l-0.111,0.151l-0.12,0.142c-0.078,0.099-0.171,0.184-0.258,0.273
				c-0.365,0.345-0.792,0.614-1.241,0.819c-0.455,0.195-0.929,0.337-1.41,0.413C153.635,63.639,152.653,63.61,151.715,63.4z"/>
		</g>
		<g>
			<path fill="#F7996E" d="M151.697,63.394c0.053-0.278-0.004-0.574-0.147-0.809c-0.145-0.236-0.371-0.411-0.616-0.54
				c-0.502-0.252-1.072-0.34-1.643-0.389c-1.172-0.11-2.323-0.356-3.445-0.689c-0.559-0.167-1.115-0.372-1.656-0.562
				c-0.272-0.088-0.552-0.157-0.833-0.205c-0.282-0.049-0.575-0.066-0.865-0.101c-1.16-0.113-2.321-0.188-3.485-0.25
				c-0.581-0.034-1.163-0.059-1.743-0.097l-0.869-0.055c-0.283-0.013-0.567-0.013-0.849,0.012c-0.563,0.043-1.12,0.17-1.644,0.376
				c-0.269,0.104-0.547,0.211-0.822,0.311c-0.279,0.091-0.555,0.189-0.837,0.273c-2.253,0.661-4.58,1.027-6.913,1.103l-0.001-0.038
				c2.306-0.315,4.589-0.771,6.796-1.451c0.277-0.084,0.547-0.179,0.823-0.268l0.814-0.297c0.565-0.208,1.16-0.33,1.758-0.362
				c0.3-0.017,0.6-0.015,0.897,0.013l0.871,0.09c0.58,0.057,1.158,0.128,1.736,0.191c1.158,0.131,2.315,0.248,3.477,0.328
				c0.289,0.019,0.58,0.033,0.875,0.063c0.294,0.03,0.586,0.083,0.874,0.157c0.569,0.163,1.12,0.318,1.683,0.462
				c1.12,0.292,2.247,0.561,3.391,0.71c0.578,0.074,1.184,0.192,1.706,0.505c0.261,0.153,0.493,0.375,0.63,0.649
				c0.136,0.275,0.166,0.595,0.074,0.881L151.697,63.394z"/>
		</g>
		<g>
			<path fill="#F7996E" d="M116.244,79.235c0.624-0.353,1.252-0.695,1.862-1.067c0.31-0.178,0.616-0.362,0.919-0.551
				c0.307-0.185,0.606-0.377,0.908-0.571c1.204-0.769,2.381-1.577,3.536-2.42c1.152-0.843,2.299-1.698,3.413-2.594
				c1.118-0.892,2.198-1.832,3.23-2.823l0.011-0.011l0.018-0.004c0.623-0.155,1.249-0.301,1.87-0.462l1.867-0.48l1.866-0.481
				l1.869-0.469l0.011-0.002l0.014-0.001l3.283-0.317c1.095-0.104,2.191-0.204,3.289-0.294l0.021-0.001l0.025,0.004
				c0.732,0.098,1.497,0.127,2.248,0.098c0.75-0.034,1.5-0.134,2.216-0.354c0.715-0.214,1.4-0.551,1.935-1.074
				c0.265-0.261,0.497-0.561,0.669-0.895c0.174-0.333,0.294-0.695,0.371-1.069l0.039,0.006c-0.09,0.76-0.406,1.514-0.946,2.086
				c-0.536,0.574-1.243,0.968-1.979,1.22c-0.739,0.25-1.513,0.377-2.285,0.432c-0.776,0.055-1.548,0.038-2.328-0.059l0.048,0.001
				c-1.096,0.104-2.19,0.199-3.288,0.29l-3.29,0.268l0.025-0.004l-1.881,0.422l-1.884,0.413l-1.883,0.414
				c-0.628,0.136-1.253,0.288-1.878,0.43l0.029-0.015c-1.05,0.976-2.105,1.946-3.181,2.896c-1.081,0.945-2.186,1.865-3.349,2.708
				c-1.162,0.845-2.359,1.641-3.595,2.372c-0.311,0.182-0.619,0.364-0.935,0.536c-0.312,0.177-0.627,0.349-0.945,0.516
				c-0.637,0.332-1.281,0.648-1.935,0.942L116.244,79.235z"/>
		</g>
		<g>
			<path fill="#F7996E" d="M124.646,53.906c2.615-0.307,5.228-0.58,7.843-0.841c0.653-0.059,1.31-0.118,1.963-0.186l0.979-0.104
				c0.325-0.038,0.656-0.082,0.985-0.099c0.662-0.038,1.326-0.017,1.981,0.079c0.328,0.05,0.654,0.116,0.977,0.194
				c0.325,0.079,0.638,0.182,0.951,0.271c1.264,0.358,2.536,0.684,3.814,0.97c0.64,0.142,1.28,0.271,1.928,0.381
				c0.323,0.055,0.643,0.108,0.968,0.157c0.321,0.05,0.654,0.091,0.983,0.161c0.656,0.14,1.302,0.344,1.91,0.629
				c0.305,0.142,0.6,0.299,0.888,0.474c0.286,0.175,0.552,0.364,0.829,0.538c1.1,0.709,2.247,1.345,3.46,1.857l-0.014,0.036
				c-1.258-0.396-2.458-0.974-3.603-1.639c-0.285-0.167-0.563-0.349-0.842-0.506c-0.281-0.16-0.571-0.299-0.869-0.427
				c-0.592-0.25-1.211-0.445-1.84-0.566c-0.316-0.063-0.635-0.106-0.965-0.157c-0.328-0.051-0.654-0.104-0.979-0.168
				c-0.649-0.125-1.293-0.268-1.937-0.423c-1.283-0.311-2.548-0.689-3.794-1.12c-0.313-0.104-0.623-0.219-0.934-0.313
				c-0.312-0.095-0.631-0.167-0.953-0.22c-0.644-0.106-1.302-0.142-1.951-0.089c-0.648,0.055-1.297,0.194-1.948,0.29
				c-0.65,0.103-1.303,0.201-1.956,0.29c-1.306,0.168-2.619,0.286-3.932,0.383c-1.313,0.089-2.628,0.165-3.945,0.184V53.906z"/>
		</g>
		<g>
			<path fill="#F7996E" d="M119.793,47.284c2.483-0.301,4.958-0.614,7.43-0.932c1.237-0.152,2.479-0.299,3.708-0.52
				c0.307-0.06,0.614-0.113,0.919-0.177l0.913-0.207c0.303-0.068,0.613-0.141,0.921-0.199c0.309-0.057,0.621-0.102,0.936-0.132
				c1.254-0.135,2.539-0.04,3.767,0.285c0.617,0.164,1.202,0.379,1.796,0.568l1.775,0.593c2.366,0.804,4.717,1.64,7.094,2.416
				l-0.009,0.037c-1.226-0.266-2.43-0.604-3.632-0.953c-1.197-0.358-2.394-0.724-3.58-1.116c-0.595-0.199-1.188-0.396-1.777-0.603
				c-0.591-0.203-1.176-0.43-1.764-0.599c-1.182-0.334-2.421-0.479-3.656-0.421c-0.62,0.03-1.233,0.117-1.842,0.255l-0.919,0.192
				c-0.306,0.057-0.612,0.124-0.919,0.184c-1.226,0.246-2.45,0.506-3.685,0.711c-1.236,0.197-2.481,0.339-3.726,0.453
				c-1.247,0.106-2.496,0.19-3.749,0.205L119.793,47.284z"/>
		</g>
		<g>
			<path fill="#F7996E" d="M117.013,47.458c-0.443-0.004-0.877,0.017-1.292,0.097c-0.207,0.041-0.406,0.1-0.59,0.182
				c-0.188,0.085-0.333,0.188-0.495,0.335c-0.316,0.277-0.603,0.587-0.854,0.93c-0.252,0.343-0.478,0.709-0.671,1.11
				c0.029-0.449,0.189-0.883,0.411-1.277c0.224-0.394,0.517-0.754,0.87-1.045c0.087-0.072,0.174-0.148,0.282-0.214
				c0.103-0.066,0.214-0.116,0.327-0.158c0.224-0.083,0.455-0.125,0.682-0.141C116.142,47.252,116.593,47.311,117.013,47.458z"/>
		</g>
		<g>
			<path fill="#F7996E" d="M115.632,57.24c0.164-0.531,0.45-1.023,0.8-1.459c0.091-0.106,0.18-0.216,0.277-0.319l0.303-0.295
				c0.216-0.182,0.438-0.358,0.678-0.508l0.18-0.112l0.189-0.095c0.129-0.061,0.25-0.135,0.383-0.182l0.4-0.143
				c0.131-0.051,0.273-0.07,0.409-0.104c0.271-0.075,0.555-0.087,0.832-0.112c0.139-0.015,0.279,0,0.417,0.006
				c0.139,0.007,0.277,0.019,0.413,0.031c-0.136,0.026-0.272,0.053-0.408,0.073c-0.134,0.027-0.268,0.033-0.399,0.074
				c-0.264,0.066-0.527,0.115-0.777,0.212c-0.51,0.157-0.991,0.39-1.438,0.672c-0.451,0.275-0.864,0.616-1.241,0.995
				C116.276,56.357,115.935,56.777,115.632,57.24z"/>
		</g>
		<g>
			<path fill="#F7996E" d="M120.049,63.358c0.125-0.207,0.293-0.372,0.474-0.521c0.182-0.148,0.381-0.273,0.589-0.375
				c0.418-0.203,0.887-0.328,1.362-0.281c-0.203,0.129-0.406,0.224-0.603,0.329l-0.593,0.293
				C120.881,62.993,120.492,63.19,120.049,63.358z"/>
		</g>
	</g>
</g>
<g id="FRONT">
	<g>
		<g>
			<g>
				<g>
					<g>
						<path fill="#FFFFFF" d="M289.635,89.142c0,0-12.522-17.729,4.551-31.48c0,0-21.934,5.81-32.603-20.983
							c0,0-10.245,13.794-23.868,2.233c0,0-1.102,13.625-19.817,13.899c0,0,8.395,17.615-14.313,27.179
							c0,0,20.228,3.371,17.545,27.935c0,0,23.188-9.634,36.948,8.739c0,0,5.573-10.39,19.266-8.327
							C277.348,108.335,275.092,94.167,289.635,89.142z"/>
					</g>
				</g>
				<g>
					<g>
						<path fill="#1B1A2E" d="M217.92,52.8c0.307,0.655,0.553,1.335,0.762,2.029c0.055,0.172,0.102,0.347,0.15,0.521
							c0.047,0.174,0.096,0.348,0.137,0.525l0.125,0.528l0.104,0.533c0.038,0.176,0.066,0.356,0.093,0.534l0.083,0.537l0.061,0.54
							c0.02,0.18,0.042,0.359,0.05,0.542c0.021,0.362,0.054,0.724,0.049,1.086l0.008,0.543c-0.002,0.182-0.012,0.362-0.017,0.543
							c-0.056,1.45-0.279,2.897-0.685,4.296c-0.409,1.396-0.995,2.74-1.723,4.002c-0.745,1.254-1.639,2.408-2.616,3.486
							c-0.514,0.515-1.011,1.048-1.573,1.51l-0.411,0.359c-0.139,0.117-0.27,0.244-0.417,0.35l-0.865,0.662
							c-2.323,1.747-4.925,3.077-7.593,4.182l-0.03-0.244c0.762,0.152,1.491,0.37,2.216,0.614c0.723,0.249,1.436,0.525,2.131,0.842
							c1.397,0.616,2.729,1.375,3.977,2.252c2.498,1.749,4.658,4,6.219,6.631c0.214,0.318,0.378,0.663,0.562,0.998l0.271,0.506
							c0.089,0.168,0.159,0.347,0.241,0.519c0.153,0.351,0.323,0.694,0.465,1.05l0.401,1.074c0.485,1.448,0.888,2.934,1.103,4.45
							c0.478,3.024,0.483,6.111,0.155,9.148l-0.296-0.222c0.805-0.324,1.615-0.589,2.436-0.84c0.819-0.246,1.646-0.466,2.479-0.661
							c1.668-0.392,3.357-0.677,5.064-0.851c1.703-0.174,3.42-0.241,5.132-0.182c1.713,0.055,3.423,0.245,5.105,0.583
							c3.359,0.674,6.617,1.932,9.484,3.812c1.438,0.929,2.774,2.011,4.008,3.193c1.22,1.195,2.335,2.494,3.342,3.87l-0.036,0.026
							c-1.041-1.346-2.188-2.607-3.433-3.762c-1.254-1.142-2.593-2.194-4.035-3.085c-0.355-0.229-0.726-0.436-1.091-0.647
							c-0.374-0.199-0.743-0.408-1.123-0.587c-0.376-0.193-0.763-0.366-1.146-0.542c-0.391-0.165-0.777-0.335-1.174-0.48
							c-0.787-0.306-1.592-0.573-2.406-0.8c-0.815-0.228-1.637-0.425-2.469-0.578c-3.326-0.623-6.742-0.707-10.107-0.35
							c-1.683,0.178-3.355,0.464-5.008,0.835c-0.827,0.188-1.647,0.4-2.458,0.639c-0.809,0.239-1.622,0.502-2.398,0.807
							l-0.337,0.133l0.041-0.353c0.337-3.007,0.365-6.058-0.07-9.05c-0.196-1.501-0.562-2.973-1.018-4.413l-0.379-1.068
							c-0.059-0.181-0.146-0.349-0.219-0.523l-0.225-0.521c-0.078-0.173-0.146-0.351-0.231-0.519l-0.26-0.503
							c-0.176-0.334-0.335-0.679-0.54-0.998c-0.2-0.322-0.385-0.651-0.593-0.968l-0.648-0.933c-0.229-0.301-0.472-0.593-0.707-0.891
							c-0.115-0.152-0.242-0.29-0.371-0.43l-0.381-0.42c-1.034-1.107-2.181-2.111-3.429-2.974c-1.248-0.862-2.576-1.606-3.967-2.207
							c-0.691-0.309-1.407-0.565-2.126-0.8c-0.721-0.229-1.455-0.432-2.19-0.565l-0.401-0.072l0.373-0.172l1.958-0.904
							c0.637-0.328,1.27-0.669,1.906-1.002l0.922-0.556l0.46-0.276c0.154-0.093,0.311-0.18,0.454-0.285l0.892-0.602l0.445-0.302
							c0.144-0.104,0.285-0.218,0.427-0.326l0.85-0.656c0.145-0.104,0.271-0.229,0.408-0.347l0.401-0.354
							c0.552-0.457,1.035-0.985,1.545-1.486c0.966-1.05,1.854-2.177,2.591-3.401c1.45-2.458,2.307-5.262,2.461-8.121
							c0.075-1.429,0-2.869-0.232-4.287l-0.09-0.53l-0.109-0.527c-0.035-0.176-0.08-0.351-0.121-0.524
							c-0.042-0.175-0.086-0.349-0.135-0.521c-0.192-0.691-0.408-1.381-0.69-2.041L217.92,52.8z"/>
					</g>
				</g>
				<g>
					<g>
						<path fill="#1B1A2E" d="M261.601,36.689c-0.329,0.466-0.698,0.898-1.082,1.323c-0.38,0.424-0.784,0.828-1.204,1.214
							c-0.844,0.768-1.744,1.482-2.714,2.094c-1.929,1.228-4.135,2.086-6.429,2.31l-0.861,0.053l-0.861-0.012
							c-0.072-0.001-0.145,0-0.217-0.003l-0.214-0.021l-0.429-0.04l-0.428-0.042l-0.423-0.074l-0.423-0.074l-0.21-0.038
							c-0.07-0.013-0.139-0.034-0.209-0.051l-0.83-0.216c-0.14-0.03-0.271-0.085-0.406-0.129l-0.406-0.139l-0.405-0.136
							c-0.135-0.048-0.263-0.108-0.396-0.162c-2.114-0.858-4.059-2.092-5.824-3.535l0.213-0.088
							c-0.11,1.126-0.405,2.204-0.798,3.252c-0.4,1.044-0.911,2.046-1.531,2.981c-0.617,0.934-1.34,1.801-2.146,2.579
							c-0.81,0.777-1.705,1.459-2.654,2.052l-0.722,0.428l-0.747,0.382c-0.246,0.135-0.506,0.239-0.76,0.353l-0.385,0.165
							l-0.193,0.083l-0.197,0.072l-0.787,0.284l-0.196,0.07l-0.2,0.059l-0.4,0.12l-0.4,0.12c-0.132,0.04-0.266,0.08-0.403,0.108
							l-0.813,0.191c-0.135,0.031-0.269,0.066-0.407,0.093l-0.411,0.07l-0.82,0.141c-0.549,0.078-1.103,0.133-1.652,0.199
							c-0.554,0.038-1.106,0.07-1.66,0.098l-1.659,0.014v-0.045c2.206-0.108,4.403-0.366,6.531-0.91l0.796-0.208
							c0.133-0.032,0.263-0.074,0.395-0.117l0.39-0.127l0.392-0.126l0.194-0.063l0.191-0.073l0.764-0.297l0.191-0.074l0.186-0.086
							l0.371-0.17c0.249-0.113,0.501-0.218,0.739-0.352l0.724-0.382l0.7-0.424c1.84-1.158,3.477-2.659,4.699-4.464
							c0.611-0.902,1.126-1.869,1.546-2.876c0.399-1.011,0.735-2.069,0.877-3.14l0.032-0.246l0.181,0.157
							c1.693,1.492,3.604,2.765,5.709,3.599c0.131,0.051,0.26,0.112,0.394,0.157l0.404,0.127l0.403,0.127
							c0.135,0.04,0.268,0.091,0.405,0.118l0.827,0.182c0.067,0.013,0.136,0.032,0.206,0.043l0.208,0.028l0.419,0.057
							c1.114,0.137,2.246,0.165,3.355,0.01c1.111-0.138,2.202-0.408,3.258-0.784c1.053-0.379,2.067-0.875,3.03-1.454
							c0.961-0.584,1.879-1.241,2.739-1.975c0.856-0.735,1.675-1.519,2.407-2.385L261.601,36.689z"/>
					</g>
				</g>
				<g>
					<g>
						<path fill="#1B1A2E" d="M258.062,116.65c0.45-0.817,1.006-1.571,1.604-2.284c0.598-0.714,1.258-1.377,1.959-1.995
							c1.406-1.228,3.003-2.246,4.726-2.981c0.427-0.195,0.87-0.347,1.309-0.509c0.447-0.141,0.892-0.29,1.348-0.398
							c0.451-0.129,0.914-0.205,1.375-0.3c0.23-0.042,0.463-0.068,0.695-0.104c0.23-0.034,0.463-0.068,0.696-0.085
							c1.865-0.186,3.752-0.122,5.604,0.149l-0.22,0.222c-0.076-0.529-0.108-1.046-0.126-1.569
							c-0.015-0.521-0.013-1.044,0.018-1.565c0.058-1.04,0.189-2.079,0.405-3.098s0.518-2.024,0.905-2.992
							c0.394-0.967,0.875-1.897,1.435-2.776c1.125-1.758,2.602-3.28,4.288-4.493c1.694-1.201,3.571-2.131,5.529-2.804l-0.037,0.116
							c-0.415-0.614-0.779-1.253-1.128-1.903c-0.347-0.648-0.669-1.312-0.972-1.982c-0.597-1.346-1.099-2.734-1.485-4.156
							c-0.781-2.838-1.092-5.823-0.77-8.767c0.177-1.469,0.508-2.921,0.993-4.319l0.392-1.04c0.148-0.339,0.31-0.673,0.463-1.01
							c0.081-0.167,0.149-0.339,0.24-0.502l0.271-0.485l0.27-0.485c0.091-0.161,0.177-0.326,0.283-0.48
							c1.576-2.512,3.624-4.704,5.917-6.569l0.197,0.39c-0.885,0.214-1.761,0.337-2.65,0.427c-0.888,0.083-1.777,0.129-2.671,0.124
							c-1.78-0.012-3.562-0.205-5.308-0.563c-3.49-0.714-6.832-2.154-9.744-4.205c-1.448-1.034-2.804-2.196-4.05-3.463
							c-0.311-0.319-0.602-0.656-0.9-0.982l-0.447-0.495c-0.144-0.169-0.278-0.345-0.419-0.517l-0.83-1.041
							c-0.266-0.356-0.513-0.724-0.771-1.084c-0.527-0.712-0.974-1.479-1.445-2.23c-0.243-0.371-0.447-0.764-0.659-1.152
							l-0.634-1.167c-0.109-0.191-0.194-0.396-0.293-0.595l-0.284-0.599l-0.568-1.2l-1.012-2.452l0.042-0.017
							c1.346,3.265,3.017,6.397,5.077,9.252c0.262,0.354,0.515,0.715,0.783,1.063l0.839,1.017c0.143,0.169,0.277,0.341,0.422,0.506
							l0.45,0.483c0.302,0.32,0.592,0.649,0.902,0.96c1.245,1.239,2.594,2.371,4.03,3.375c2.896,1.976,6.17,3.391,9.605,4.085
							c1.714,0.349,3.465,0.532,5.216,0.542c0.876,0.005,1.752-0.031,2.623-0.108c0.868-0.082,1.745-0.203,2.581-0.398l0.967-0.228
							l-0.771,0.616c-2.276,1.825-4.295,3.976-5.866,6.427c-0.105,0.147-0.19,0.309-0.282,0.468l-0.271,0.474l-0.271,0.474
							c-0.092,0.157-0.16,0.326-0.241,0.489c-0.154,0.33-0.316,0.655-0.465,0.987l-0.396,1.018
							c-0.487,1.372-0.846,2.791-1.039,4.237c-0.361,2.896-0.1,5.863,0.65,8.692c0.377,1.415,0.87,2.798,1.457,4.14
							c0.59,1.34,1.281,2.644,2.096,3.854l0.057,0.083l-0.093,0.032c-1.941,0.68-3.801,1.613-5.453,2.835
							c-0.815,0.622-1.601,1.289-2.285,2.051c-0.69,0.754-1.33,1.559-1.858,2.437c-0.537,0.872-0.991,1.791-1.361,2.742
							c-0.375,0.951-0.665,1.935-0.871,2.936c-0.207,1-0.332,2.02-0.383,3.041c-0.024,0.51-0.036,1.021-0.023,1.533
							c0.014,0.508,0.044,1.025,0.11,1.52l0.035,0.259l-0.253-0.039c-1.823-0.278-3.678-0.353-5.511-0.182
							c-0.229,0.013-0.459,0.047-0.686,0.079c-0.228,0.032-0.457,0.059-0.684,0.099c-0.452,0.089-0.906,0.165-1.352,0.282
							c-0.452,0.099-0.889,0.239-1.33,0.37c-0.435,0.154-0.872,0.295-1.295,0.481c-1.707,0.694-3.293,1.681-4.713,2.864
							c-0.708,0.593-1.377,1.235-1.988,1.931c-0.608,0.695-1.186,1.429-1.66,2.223L258.062,116.65z"/>
					</g>
				</g>
			</g>
			<g>
				<g>
					<g>
						<path fill="#E4415B" d="M258.345,87.865c-0.53,0-0.98-0.191-1.353-0.574c-0.371-0.383-0.557-0.849-0.557-1.402
							c0-0.552,0.186-1.02,0.557-1.402c0.372-0.383,0.822-0.574,1.353-0.574c0.554,0,1.021,0.191,1.403,0.574
							c0.383,0.382,0.573,0.849,0.573,1.402c0,0.553-0.19,1.02-0.573,1.402C259.365,87.673,258.898,87.865,258.345,87.865z
							 M260.034,65.473l-0.351,15.926h-2.422l-0.351-15.926H260.034z"/>
					</g>
				</g>
				<g>
					<g>
						<path fill="#E4415B" d="M248.854,87.865c-0.53,0-0.981-0.191-1.353-0.574c-0.372-0.383-0.557-0.849-0.557-1.402
							c0-0.552,0.185-1.02,0.557-1.402c0.371-0.383,0.822-0.574,1.353-0.574c0.554,0,1.021,0.191,1.403,0.574
							c0.382,0.382,0.573,0.849,0.573,1.402c0,0.553-0.191,1.02-0.573,1.402C249.874,87.673,249.407,87.865,248.854,87.865z
							 M250.543,65.473l-0.352,15.926h-2.421l-0.352-15.926H250.543z"/>
					</g>
				</g>
				<g>
					<g>
						<path fill="#E4415B" d="M239.362,87.865c-0.531,0-0.981-0.191-1.353-0.574c-0.372-0.383-0.557-0.849-0.557-1.402
							c0-0.552,0.185-1.02,0.557-1.402c0.371-0.383,0.821-0.574,1.353-0.574c0.554,0,1.02,0.191,1.402,0.574
							c0.383,0.382,0.574,0.849,0.574,1.402c0,0.553-0.191,1.02-0.574,1.402C240.382,87.673,239.916,87.865,239.362,87.865z
							 M241.051,65.473L240.7,81.399h-2.421l-0.351-15.926H241.051z"/>
					</g>
				</g>
			</g>
		</g>
		<g>
			<g>
				<g>
					
						<rect x="247.733" y="19.902" transform="matrix(-0.996 0.0897 -0.0897 -0.996 497.225 29.1785)" fill="#1B1A2E" width="0.446" height="11.731"/>
				</g>
			</g>
			<g>
				<g>
					
						<rect x="223.096" y="30.819" transform="matrix(-0.755 0.6557 -0.6557 -0.755 415.9806 -82.0549)" fill="#1B1A2E" width="0.448" height="11.73"/>
				</g>
			</g>
			<g>
				<g>
					
						<rect x="201.836" y="98.171" transform="matrix(-0.7409 0.6716 -0.6716 -0.7409 427.6693 31.7964)" fill="#1B1A2E" width="11.731" height="0.448"/>
				</g>
			</g>
			<g>
				<g>
					
						<rect x="233.54" y="120.71" transform="matrix(-0.2057 0.9786 -0.9786 -0.2057 406.9993 -88.4753)" fill="#1B1A2E" width="11.731" height="0.448"/>
				</g>
			</g>
			<g>
				<g>
					
						<rect x="290.971" y="98.341" transform="matrix(-0.604 0.797 -0.797 -0.604 550.1285 -64.9289)" fill="#1B1A2E" width="0.448" height="11.731"/>
				</g>
			</g>
			<g>
				<g>
					
						<rect x="278.409" y="41.334" transform="matrix(-0.6033 0.7975 -0.7975 -0.6033 485.2893 -158.2713)" fill="#1B1A2E" width="7.197" height="0.447"/>
				</g>
			</g>
		</g>
	</g>
	<g>
		<g>
			<g>
				<g>
					<g>
						<path fill="#FFFFFF" d="M64.411,50.22c0,0-8.438-11.944,3.064-21.21c0,0-14.777,3.913-21.965-14.138
							c0,0-6.901,9.292-16.081,1.506c0,0-0.741,9.179-13.349,9.364c0,0,5.655,11.868-9.642,18.31c0,0,13.627,2.272,11.82,18.821
							c0,0,15.622-6.49,24.893,5.887c0,0,3.756-7,12.981-5.609C56.13,63.152,54.613,53.605,64.411,50.22z"/>
					</g>
				</g>
				<g>
					<g>
						<path fill="#1B1A2E" d="M16.094,25.735c0.207,0.441,0.371,0.899,0.514,1.366c0.038,0.115,0.07,0.232,0.1,0.35
							c0.033,0.118,0.066,0.235,0.092,0.355l0.083,0.356l0.07,0.358c0.024,0.119,0.045,0.239,0.063,0.36l0.057,0.362l0.039,0.364
							c0.014,0.121,0.029,0.243,0.033,0.364c0.013,0.244,0.036,0.486,0.034,0.731l0.006,0.366c0,0.121-0.007,0.244-0.012,0.366
							c-0.037,0.978-0.187,1.952-0.46,2.894c-0.274,0.942-0.671,1.846-1.162,2.696c-0.501,0.845-1.102,1.624-1.762,2.348
							c-0.345,0.347-0.68,0.705-1.059,1.018l-0.276,0.241c-0.094,0.079-0.182,0.165-0.281,0.234l-0.583,0.446
							c-1.565,1.176-3.318,2.073-5.116,2.817l-0.019-0.165c0.511,0.103,1.004,0.249,1.493,0.414
							c0.487,0.168,0.966,0.354,1.434,0.566c0.942,0.415,1.838,0.926,2.68,1.518c1.683,1.179,3.138,2.695,4.189,4.468
							c0.142,0.214,0.254,0.447,0.379,0.673l0.182,0.341c0.06,0.114,0.108,0.233,0.163,0.351c0.104,0.235,0.218,0.468,0.312,0.707
							l0.271,0.724c0.326,0.976,0.599,1.976,0.743,2.998c0.322,2.037,0.326,4.118,0.106,6.165l-0.199-0.15
							c0.542-0.218,1.088-0.398,1.641-0.565c0.553-0.167,1.11-0.314,1.671-0.445c1.123-0.264,2.262-0.457,3.411-0.572
							c1.148-0.118,2.304-0.161,3.458-0.124c1.153,0.038,2.306,0.165,3.438,0.392c2.263,0.456,4.459,1.302,6.39,2.568
							c0.971,0.625,1.869,1.355,2.701,2.151c0.822,0.805,1.572,1.68,2.251,2.607l-0.025,0.019c-0.704-0.905-1.475-1.756-2.314-2.533
							c-0.845-0.769-1.747-1.478-2.717-2.079c-0.239-0.155-0.488-0.293-0.735-0.437c-0.252-0.135-0.5-0.275-0.758-0.396
							c-0.254-0.131-0.513-0.247-0.772-0.366c-0.264-0.11-0.524-0.226-0.791-0.325c-0.531-0.206-1.073-0.386-1.621-0.538
							c-0.547-0.153-1.103-0.286-1.664-0.39c-2.24-0.421-4.542-0.477-6.81-0.237c-1.135,0.119-2.261,0.313-3.373,0.563
							c-0.557,0.127-1.108,0.269-1.656,0.431c-0.545,0.161-1.091,0.337-1.616,0.543l-0.226,0.089l0.026-0.236
							c0.228-2.026,0.247-4.082-0.047-6.098c-0.13-1.01-0.378-2.003-0.686-2.974l-0.256-0.72c-0.04-0.121-0.099-0.235-0.146-0.352
							l-0.151-0.351c-0.053-0.115-0.099-0.235-0.155-0.349l-0.174-0.339c-0.12-0.226-0.226-0.457-0.364-0.673
							c-0.133-0.218-0.26-0.439-0.4-0.651L15.3,49.719c-0.154-0.204-0.319-0.4-0.477-0.599c-0.078-0.102-0.165-0.195-0.25-0.29
							l-0.258-0.284c-0.697-0.745-1.471-1.423-2.31-2.003c-0.839-0.582-1.736-1.082-2.671-1.487
							c-0.466-0.209-0.947-0.38-1.433-0.539c-0.485-0.153-0.979-0.29-1.476-0.378l-0.271-0.049l0.252-0.116l1.319-0.608
							c0.43-0.221,0.856-0.451,1.284-0.674l0.622-0.374l0.311-0.188c0.102-0.063,0.208-0.122,0.307-0.191l0.599-0.406l0.3-0.202
							c0.098-0.071,0.19-0.146,0.288-0.221l0.572-0.441c0.099-0.07,0.185-0.155,0.275-0.233l0.271-0.239
							c0.371-0.308,0.697-0.665,1.04-1c0.652-0.707,1.249-1.466,1.746-2.291c0.978-1.656,1.553-3.545,1.658-5.472
							c0.051-0.962,0-1.933-0.158-2.888l-0.06-0.358l-0.074-0.356c-0.023-0.12-0.053-0.237-0.081-0.354
							c-0.028-0.118-0.058-0.235-0.091-0.353c-0.129-0.466-0.275-0.931-0.466-1.375L16.094,25.735z"/>
					</g>
				</g>
				<g>
					<g>
						<path fill="#1B1A2E" d="M45.523,14.882c-0.221,0.314-0.472,0.606-0.727,0.89c-0.256,0.286-0.529,0.557-0.811,0.819
							c-0.569,0.517-1.175,0.999-1.827,1.41c-1.3,0.828-2.785,1.406-4.332,1.556l-0.58,0.036l-0.58-0.007
							c-0.049-0.001-0.097,0-0.144-0.003l-0.144-0.014l-0.289-0.027l-0.288-0.028l-0.285-0.051l-0.284-0.052l-0.142-0.024
							c-0.047-0.009-0.093-0.022-0.141-0.034l-0.558-0.146c-0.095-0.021-0.185-0.057-0.275-0.087l-0.272-0.092l-0.273-0.093
							c-0.091-0.032-0.178-0.074-0.268-0.11c-1.423-0.578-2.734-1.41-3.922-2.382l0.143-0.059c-0.074,0.758-0.273,1.486-0.539,2.191
							c-0.269,0.703-0.614,1.379-1.03,2.007c-0.415,0.629-0.902,1.212-1.446,1.737c-0.546,0.523-1.148,0.983-1.789,1.383
							l-0.487,0.288l-0.502,0.258c-0.165,0.09-0.341,0.161-0.512,0.237l-0.26,0.112l-0.128,0.055l-0.133,0.047l-0.53,0.191
							l-0.133,0.047l-0.134,0.04l-0.27,0.08l-0.269,0.08c-0.089,0.026-0.18,0.053-0.271,0.074l-0.548,0.129
							c-0.091,0.021-0.182,0.045-0.275,0.063l-0.277,0.046l-0.554,0.095c-0.369,0.053-0.742,0.089-1.111,0.134
							c-0.374,0.025-0.745,0.047-1.118,0.066l-1.118,0.01v-0.03c1.486-0.072,2.967-0.247,4.4-0.612l0.537-0.141
							c0.089-0.021,0.178-0.049,0.265-0.078l0.263-0.085l0.263-0.085l0.131-0.041l0.129-0.049l0.516-0.201l0.128-0.049l0.125-0.057
							l0.25-0.116c0.167-0.076,0.337-0.148,0.498-0.237l0.487-0.256l0.47-0.286c1.239-0.781,2.342-1.791,3.167-3.009
							c0.411-0.606,0.76-1.259,1.04-1.937c0.27-0.68,0.495-1.395,0.591-2.116l0.023-0.165l0.122,0.106
							c1.141,1.004,2.429,1.863,3.847,2.426c0.089,0.034,0.174,0.073,0.265,0.106l0.273,0.085l0.272,0.085
							c0.091,0.027,0.18,0.062,0.273,0.08l0.557,0.124c0.047,0.009,0.093,0.022,0.138,0.028l0.141,0.02l0.282,0.038
							c0.75,0.093,1.515,0.111,2.261,0.007c0.748-0.092,1.483-0.274,2.193-0.528c0.711-0.256,1.393-0.589,2.042-0.979
							c0.648-0.393,1.266-0.836,1.846-1.331c0.576-0.495,1.129-1.025,1.622-1.607L45.523,14.882z"/>
					</g>
				</g>
				<g>
					<g>
						<path fill="#1B1A2E" d="M43.139,68.753c0.305-0.549,0.677-1.057,1.081-1.539c0.403-0.481,0.847-0.928,1.32-1.343
							c0.948-0.828,2.024-1.513,3.184-2.009c0.288-0.13,0.585-0.233,0.881-0.343c0.302-0.095,0.601-0.195,0.908-0.267
							c0.303-0.087,0.616-0.139,0.925-0.201c0.155-0.028,0.313-0.045,0.468-0.07c0.155-0.022,0.313-0.047,0.469-0.056
							c1.257-0.125,2.528-0.082,3.775,0.1l-0.147,0.15c-0.051-0.356-0.072-0.705-0.083-1.057c-0.011-0.351-0.01-0.703,0.011-1.054
							c0.038-0.701,0.127-1.4,0.273-2.088c0.146-0.688,0.349-1.363,0.61-2.017c0.265-0.652,0.589-1.279,0.967-1.87
							c0.757-1.184,1.75-2.209,2.887-3.026c1.143-0.81,2.406-1.437,3.728-1.89l-0.025,0.078c-0.28-0.413-0.525-0.843-0.76-1.281
							c-0.235-0.438-0.451-0.883-0.654-1.336c-0.402-0.906-0.741-1.842-1-2.801c-0.527-1.912-0.735-3.924-0.519-5.906
							c0.117-0.989,0.343-1.967,0.669-2.911l0.264-0.701c0.098-0.229,0.208-0.453,0.312-0.681c0.056-0.112,0.101-0.229,0.161-0.337
							l0.182-0.328l0.182-0.328c0.062-0.108,0.118-0.22,0.19-0.322c1.061-1.694,2.442-3.17,3.986-4.427l0.133,0.261
							c-0.595,0.144-1.186,0.228-1.785,0.288c-0.599,0.057-1.198,0.088-1.798,0.083c-1.201-0.007-2.399-0.138-3.576-0.379
							c-2.352-0.481-4.603-1.452-6.565-2.833c-0.977-0.697-1.888-1.479-2.727-2.333c-0.208-0.214-0.404-0.441-0.606-0.662
							l-0.302-0.333c-0.097-0.114-0.188-0.233-0.282-0.349l-0.559-0.701c-0.178-0.239-0.347-0.487-0.52-0.729
							c-0.356-0.479-0.656-0.997-0.974-1.503c-0.162-0.25-0.301-0.516-0.445-0.777l-0.426-0.786
							c-0.074-0.129-0.133-0.267-0.197-0.402l-0.191-0.403l-0.383-0.808l-0.682-1.65l0.028-0.011c0.906,2.2,2.034,4.311,3.42,6.234
							c0.176,0.239,0.347,0.481,0.527,0.717l0.565,0.686c0.095,0.114,0.186,0.231,0.284,0.341l0.301,0.326
							c0.203,0.216,0.398,0.438,0.606,0.648c0.84,0.835,1.747,1.597,2.716,2.274c1.95,1.332,4.157,2.285,6.471,2.752
							c1.156,0.235,2.335,0.361,3.515,0.364c0.589,0.004,1.18-0.02,1.766-0.074c0.585-0.055,1.177-0.136,1.737-0.269l0.65-0.153
							l-0.517,0.415c-1.533,1.229-2.894,2.677-3.953,4.329c-0.072,0.101-0.129,0.209-0.189,0.315l-0.182,0.32l-0.182,0.321
							c-0.06,0.106-0.108,0.22-0.161,0.33c-0.104,0.222-0.213,0.442-0.312,0.665l-0.267,0.686c-0.328,0.924-0.569,1.88-0.7,2.854
							c-0.245,1.952-0.066,3.949,0.438,5.855c0.254,0.953,0.586,1.885,0.982,2.789c0.397,0.902,0.862,1.781,1.411,2.596l0.038,0.057
							l-0.063,0.023c-1.308,0.458-2.562,1.086-3.674,1.91c-0.55,0.418-1.079,0.868-1.541,1.381
							c-0.464,0.508-0.897,1.051-1.253,1.641c-0.359,0.587-0.667,1.206-0.917,1.848c-0.252,0.64-0.448,1.304-0.588,1.979
							c-0.14,0.674-0.223,1.36-0.257,2.048c-0.018,0.345-0.025,0.688-0.015,1.033c0.009,0.343,0.028,0.691,0.074,1.023l0.024,0.174
							l-0.172-0.027c-1.228-0.188-2.477-0.238-3.712-0.123c-0.155,0.01-0.309,0.032-0.462,0.053c-0.153,0.022-0.307,0.04-0.46,0.066
							c-0.306,0.061-0.61,0.11-0.91,0.191c-0.303,0.067-0.599,0.161-0.896,0.251c-0.292,0.104-0.587,0.199-0.872,0.324
							c-1.15,0.467-2.219,1.131-3.173,1.928c-0.478,0.4-0.929,0.832-1.342,1.3c-0.411,0.468-0.797,0.963-1.117,1.499L43.139,68.753z
							"/>
					</g>
				</g>
			</g>
			<g>
				<g>
					<g>
						<path fill="#E4415B" d="M43.331,49.359c-0.358,0-0.662-0.129-0.912-0.387c-0.25-0.257-0.375-0.572-0.375-0.943
							c0-0.372,0.125-0.687,0.375-0.944c0.25-0.258,0.555-0.387,0.912-0.387c0.371,0,0.686,0.129,0.943,0.387
							c0.258,0.257,0.387,0.572,0.387,0.944c0,0.371-0.129,0.686-0.387,0.943C44.017,49.23,43.702,49.359,43.331,49.359z
							 M44.468,34.273l-0.237,10.729H42.6l-0.237-10.729H44.468z"/>
					</g>
				</g>
				<g>
					<g>
						<path fill="#E4415B" d="M36.936,49.359c-0.358,0-0.661-0.129-0.912-0.387c-0.25-0.257-0.375-0.572-0.375-0.943
							c0-0.372,0.125-0.687,0.375-0.944c0.25-0.258,0.555-0.387,0.912-0.387c0.372,0,0.686,0.129,0.944,0.387
							c0.258,0.257,0.386,0.572,0.386,0.944c0,0.371-0.128,0.686-0.386,0.943S37.307,49.359,36.936,49.359z M38.072,34.273
							l-0.237,10.729h-1.631l-0.237-10.729H38.072z"/>
					</g>
				</g>
				<g>
					<g>
						<path fill="#E4415B" d="M30.541,49.359c-0.358,0-0.662-0.129-0.912-0.387c-0.25-0.257-0.375-0.572-0.375-0.943
							c0-0.372,0.125-0.687,0.375-0.944c0.25-0.258,0.556-0.387,0.912-0.387c0.372,0,0.686,0.129,0.944,0.387
							c0.257,0.257,0.387,0.572,0.387,0.944c0,0.371-0.129,0.686-0.387,0.943C31.228,49.23,30.914,49.359,30.541,49.359z
							 M31.679,34.273l-0.236,10.729h-1.632l-0.236-10.729H31.679z"/>
					</g>
				</g>
			</g>
		</g>
		<g>
			<g>
				<g>
					
						<rect x="36.179" y="3.574" transform="matrix(-0.9957 0.0923 -0.0923 -0.9957 73.1996 11.6663)" fill="#1B1A2E" width="0.302" height="7.904"/>
				</g>
			</g>
			<g>
				<g>
					
						<rect x="19.586" y="10.922" transform="matrix(-0.7533 0.6577 -0.6577 -0.7533 44.3872 13.0972)" fill="#1B1A2E" width="0.301" height="7.903"/>
				</g>
			</g>
			<g>
				<g>
					
						<rect x="5.262" y="56.309" transform="matrix(-0.7409 0.6716 -0.6716 -0.7409 53.9575 92.105)" fill="#1B1A2E" width="7.903" height="0.301"/>
				</g>
			</g>
			<g>
				<g>
					
						<rect x="26.609" y="71.484" transform="matrix(-0.2057 0.9786 -0.9786 -0.2057 106.9503 56.4636)" fill="#1B1A2E" width="7.904" height="0.301"/>
				</g>
			</g>
			<g>
				<g>
					
						<rect x="65.315" y="56.416" transform="matrix(-0.6049 0.7963 -0.7963 -0.6049 153.1364 44.7566)" fill="#1B1A2E" width="0.301" height="7.903"/>
				</g>
			</g>
			<g>
				<g>
					
						<rect x="56.855" y="18.017" transform="matrix(-0.6033 0.7975 -0.7975 -0.6033 109.5307 -18.1479)" fill="#1B1A2E" width="4.849" height="0.301"/>
				</g>
			</g>
		</g>
	</g>
</g>
<path fill="#FCC8A1" d="M220.924,107.905"/>
</svg>
